<?xml version="1.0" encoding="utf-8"?>
<!-- Generator: Adobe Illustrator 26.0.3, SVG Export Plug-In . SVG Version: 6.00 Build 0)  -->
<svg version="1.1" id="Capa_1" xmlns="http://www.w3.org/2000/svg" xmlns:xlink="http://www.w3.org/1999/xlink" x="0px" y="0px"
	 viewBox="0 0 850 850" style="enable-background:new 0 0 850 850;" xml:space="preserve">
<style type="text/css">
	.st0{fill-rule:evenodd;clip-rule:evenodd;fill:#FAFAFA;}
</style>
<g>
	<g id="WA_Logo_10_">
		<g>
			<path class="st0" d="M702.75,145.8C628.96,71.95,530.82,31.26,426.26,31.21c-215.44,0-390.77,175.27-390.86,390.71
				c-0.03,68.86,17.97,136.09,52.17,195.34L32.12,819.74l207.2-54.33c57.09,31.13,121.36,47.53,186.78,47.56h0.16c0.01,0-0.01,0,0,0
				c215.41,0,390.77-175.29,390.86-390.73C817.16,317.83,776.54,219.66,702.75,145.8z M426.26,746.97h-0.13
				c-58.29-0.02-115.47-15.68-165.35-45.27l-11.86-7.04l-122.96,32.24l32.82-119.84l-7.72-12.29
				c-32.52-51.71-49.69-111.47-49.67-172.84c0.07-179.06,145.81-324.74,325-324.74c86.77,0.03,168.34,33.86,229.67,95.24
				c61.34,61.39,95.1,142.98,95.06,229.76C751.06,601.29,605.32,746.97,426.26,746.97z M604.46,503.74
				c-9.77-4.89-57.78-28.51-66.73-31.76c-8.95-3.26-15.46-4.89-21.97,4.89c-6.51,9.77-25.23,31.76-30.92,38.28
				c-5.7,6.52-11.39,7.33-21.16,2.44c-9.77-4.89-41.23-15.2-78.54-48.46c-29.03-25.89-48.63-57.86-54.33-67.64
				s-0.61-15.06,4.28-19.93c4.39-4.37,9.77-11.4,14.65-17.1c4.88-5.7,6.51-9.77,9.77-16.29c3.26-6.52,1.63-12.22-0.81-17.1
				c-2.44-4.89-21.97-52.94-30.11-72.49c-7.93-19.04-15.98-16.46-21.97-16.76c-5.69-0.28-12.21-0.34-18.72-0.34
				c-6.51,0-17.09,2.44-26.04,12.22c-8.95,9.77-34.18,33.39-34.18,81.45c0,48.05,34.99,94.48,39.88,101s68.87,105.13,166.83,147.42
				c23.3,10.06,41.49,16.07,55.67,20.57c23.4,7.43,44.69,6.38,61.51,3.87c18.76-2.8,57.78-23.62,65.92-46.42
				c8.14-22.81,8.14-42.35,5.7-46.43C620.74,511.08,614.23,508.63,604.46,503.74z"/>
		</g>
	</g>
</g>
</svg>
