<?xml version="1.0" encoding="utf-8"?>
<!-- Generator: Adobe Illustrator 26.0.3, SVG Export Plug-In . SVG Version: 6.00 Build 0)  -->
<svg version="1.1" id="Capa_1" xmlns="http://www.w3.org/2000/svg" xmlns:xlink="http://www.w3.org/1999/xlink" x="0px" y="0px"
	 viewBox="0 0 850 850" style="enable-background:new 0 0 850 850;" xml:space="preserve">
<style type="text/css">
	.st0{fill:#FAFAFA;}
</style>
<g>
	<g>
		<path class="st0" d="M281.06,740c292.09,0,451.82-241.99,451.82-451.82c0-6.88-0.14-13.72-0.45-20.53
			c31-22.41,57.96-50.38,79.22-82.22c-28.45,12.64-59.07,21.16-91.19,25c32.78-19.66,57.96-50.76,69.83-87.84
			c-30.69,18.19-64.66,31.42-100.83,38.54c-28.98-30.87-70.25-50.17-115.91-50.17c-87.7,0-158.82,71.12-158.82,158.79
			c0,12.46,1.4,24.58,4.12,36.21c-131.97-6.63-249-69.83-327.31-165.91c-13.65,23.46-21.51,50.73-21.51,79.81
			c0,55.09,28.04,103.73,70.66,132.18c-26.05-0.8-50.52-7.96-71.92-19.87c-0.03,0.66-0.03,1.33-0.03,2.03
			c0,76.91,54.74,141.12,127.4,155.68c-13.34,3.63-27.37,5.59-41.86,5.59c-10.23,0-20.18-1.01-29.85-2.86
			c20.22,63.09,78.84,109,148.35,110.29c-54.36,42.59-122.83,67.97-197.23,67.97c-12.81,0-25.45-0.73-37.88-2.2
			C107.92,713.71,191.37,740,281.06,740"/>
	</g>
</g>
</svg>
