<?xml version="1.0" encoding="utf-8"?>
<!-- Generator: Adobe Illustrator 26.0.3, SVG Export Plug-In . SVG Version: 6.00 Build 0)  -->
<svg version="1.1" id="Capa_1" xmlns="http://www.w3.org/2000/svg" xmlns:xlink="http://www.w3.org/1999/xlink" x="0px" y="0px"
	 viewBox="0 0 850 850" style="enable-background:new 0 0 850 850;" xml:space="preserve">
<style type="text/css">
	.st0{fill:#FAFAFA;}
</style>
<g>
	<path class="st0" d="M714.56,661.38c-23.12,0-41.87,18.75-41.87,41.87v18.49h-496.2v-18.49c0-23.12-18.75-41.87-41.87-41.87
		s-41.87,18.75-41.87,41.87v102.23h663.68V703.25C756.43,680.13,737.68,661.38,714.56,661.38z"/>
	<path class="st0" d="M233.01,501.52l191.58,170.73l191.57-170.73c17.27-15.39,18.79-41.85,3.4-59.11
		c-15.38-17.26-41.85-18.79-59.11-3.4l-93.99,83.76V85.87c0-23.12-18.75-41.87-41.87-41.87s-41.87,18.75-41.87,41.87v436.9
		L288.73,439c-17.26-15.39-43.73-13.87-59.11,3.4C214.23,459.67,215.75,486.13,233.01,501.52z"/>
</g>
</svg>
