<?xml version="1.0" encoding="utf-8"?>
<!-- Generator: Adobe Illustrator 26.0.3, SVG Export Plug-In . SVG Version: 6.00 Build 0)  -->
<svg version="1.1" id="Capa_1" xmlns="http://www.w3.org/2000/svg" xmlns:xlink="http://www.w3.org/1999/xlink" x="0px" y="0px"
	 viewBox="0 0 850 850" style="enable-background:new 0 0 850 850;" xml:space="preserve">
<style type="text/css">
	.st0{fill:#FAFAFA;}
</style>
<path class="st0" d="M796.15,125.91c-2.67-7.78-5.85-9.91-10.82-11.79c-10.87-4.12-29.28,2.07-29.28,2.07S104.3,350.45,67.08,376.4
	c-8.02,5.59-10.7,8.83-12.03,12.64c-6.44,18.47,13.61,26.62,13.61,26.62l167.98,54.73c0,0,6.27,0.91,8.5-0.5
	c38.21-24.15,384.47-242.8,404.45-250.14c3.15-0.94,5.48,0.14,4.86,2.31c-8,28.05-308.74,295.38-308.74,295.38s-1.15,1.41-1.87,3.1
	l-0.39-0.23l-15.68,166.62c0,0-6.56,51.04,44.48,0c36.02-36.02,70.86-66.15,88.3-80.81c57.76,39.88,119.92,84,146.74,107.07
	c13.47,11.59,24.75,13.47,34.03,13.13c25.47-0.95,32.57-28.93,32.57-28.93s118.77-478,122.74-542.05
	c0.39-6.27,0.92-10.27,0.97-14.58C797.68,134.75,797.12,128.73,796.15,125.91z"/>
</svg>
