<svg id="Capa_1" data-name="Capa 1" xmlns="http://www.w3.org/2000/svg" viewBox="0 0 1702 367"><defs><style>.cls-1{fill:#3d3d3d;}.cls-2{fill:#2a94ff;}</style></defs><path class="cls-1" d="M48.31,89H68.69v30.71H48.6v33H86.2v33.87H10.14V20.16H86.2v35H48.31Z"/><path class="cls-1" d="M181.77,186.62H106.86l.29-166.46h37V151.6h37.6Z"/><path class="cls-1" d="M237.44,89h20.38v30.71H237.73v33h37.6v33.87H199.27V20.16h76.06v35H237.44Z"/><path class="cls-1" d="M352.82,62.35a11,11,0,0,0-3-7.61,9.76,9.76,0,0,0-14.63,0,11,11,0,0,0-3,7.61v82.94a10.34,10.34,0,1,0,20.67,0V121.18h28.12v27.27q0,17.51-11.62,29.27T339,189.49h-1.72q-20.38,0-32-13.49t-11.63-33.58V58.33a39.17,39.17,0,0,1,5.74-20.66A42.18,42.18,0,0,1,315.08,22.6,45,45,0,0,1,337.6,17H339q21.52,0,31.86,13.78t10.33,33.29v22.1H352.82Z"/><path class="cls-1" d="M459.86,62.35a11,11,0,0,0-3-7.61,9.77,9.77,0,0,0-14.64,0,11,11,0,0,0-3,7.61v82.94a10.33,10.33,0,1,0,20.66,0V121.18H488v27.27q0,17.51-11.63,29.27t-30.27,11.77h-1.73q-20.37,0-32-13.49t-11.62-33.58V58.33a39.08,39.08,0,0,1,5.74-20.66A42.15,42.15,0,0,1,422.12,22.6,45,45,0,0,1,444.65,17h1.44q21.53,0,31.85,13.78t10.33,33.29v22.1H459.86Z"/><path class="cls-1" d="M509.22,20.16h39V186.62h-39Z"/><path class="cls-1" d="M582.26,32.5q11.91-15.21,34.58-15.21,22.39,0,33.58,15.06t11.19,40v62q0,25-11.19,40t-33.58,15.07q-22.67,0-34.58-15.22t-11.91-39.89v-62Q570.35,47.72,582.26,32.5ZM616,155.33q9.18,0,9.19-14.35V65.79q0-14.34-9.19-14.35-8.9,0-8.9,14.35V141Q607.08,155.34,616,155.33Z"/><path class="cls-1" d="M774.11,186.62H748.86l-34.73-83.23v83.23H683.71V20.16H715l28.7,63.71V20.16h30.42Z"/><path class="cls-1" d="M836.39,89h20.38v30.71H836.68v33h37.59v33.87h-76V20.16h76v35H836.39Z"/><path class="cls-1" d="M976.16,112.86q7.46,12.35,7.46,29.85,0,21.81-12.92,34.29t-32.43,12.49h-4.59q-21.52,0-32.72-13.92t-11.19-33.44V126.35h24.68v13.49q0,8,4,12.77t11.77,4.73a16.64,16.64,0,0,0,11.62-4.3,13.78,13.78,0,0,0,4.74-10.62c0-3.63-1.35-7.51-4-11.62s-6.89-8.08-12.63-11.92q-36.16-24.1-36.16-62.56a40.37,40.37,0,0,1,4.73-19.23,36.17,36.17,0,0,1,14.07-14.35q9.31-5.44,21.95-5.45,20.09,0,30.57,11.05t10.47,30V74.69H949.75V61.2q0-6.31-3.73-9.33a13.31,13.31,0,0,0-8.61-3,10.77,10.77,0,0,0-7.89,3.3q-3.3,3.3-3.3,9,0,6.89,6,13.77a65.2,65.2,0,0,0,15.5,12.63Q968.7,100.51,976.16,112.86Z"/><path class="cls-1" d="M1281.59,329.75v-35.3L1314,247.38a119.92,119.92,0,0,0,11.91-20.95,51.53,51.53,0,0,0,4.16-20.38c0-3.83-.95-6.7-2.87-8.61a10.46,10.46,0,0,0-7.74-2.87,9.28,9.28,0,0,0-7.18,3.16,10.37,10.37,0,0,0-2.87,7.17v23.53h-28.12V206.05q0-19.23,9.9-32.29t35.15-13.06a45.71,45.71,0,0,1,21.24,5,38.06,38.06,0,0,1,15.36,14.2,39,39,0,0,1,5.59,20.67,81.26,81.26,0,0,1-4.45,26.11,106.64,106.64,0,0,1-11,23.54l-29.27,44.2h44.77v35.3Z"/><path class="cls-1" d="M1457.52,166.73a47.92,47.92,0,0,1,16.93,16.93,44.69,44.69,0,0,1,6.32,23.25v79.5a44.66,44.66,0,0,1-6.32,23.25,47.84,47.84,0,0,1-16.93,16.93,46,46,0,0,1-46.5,0,47.84,47.84,0,0,1-16.93-16.93,44.65,44.65,0,0,1-6.31-23.25v-79.5a44.68,44.68,0,0,1,6.31-23.25A47.92,47.92,0,0,1,1411,166.73a46,46,0,0,1,46.5,0Zm-16.94,31.14a8.34,8.34,0,0,0-6.31-2.73,9.31,9.31,0,0,0-9.18,9.19v83.23a9.31,9.31,0,0,0,9.18,9.18,8.34,8.34,0,0,0,6.31-2.73,9,9,0,0,0,2.59-6.45V204.33A9.05,9.05,0,0,0,1440.58,197.87Z"/><path class="cls-1" d="M1501.72,329.75v-35.3l32.43-47.07a121.23,121.23,0,0,0,11.91-20.95,51.53,51.53,0,0,0,4.16-20.38q0-5.75-2.87-8.61a10.5,10.5,0,0,0-7.75-2.87,9.25,9.25,0,0,0-7.17,3.16,10.32,10.32,0,0,0-2.87,7.17v23.53h-28.13V206.05q0-19.23,9.9-32.29t35.15-13.06a45.75,45.75,0,0,1,21.25,5,38,38,0,0,1,15.35,14.2,39,39,0,0,1,5.59,20.67,81.52,81.52,0,0,1-4.44,26.11,107.1,107.1,0,0,1-11,23.54l-29.28,44.2h44.77v35.3Z"/><path class="cls-1" d="M1607,329.75v-35.3l32.43-47.07a119.92,119.92,0,0,0,11.91-20.95,51.53,51.53,0,0,0,4.16-20.38q0-5.75-2.87-8.61a10.49,10.49,0,0,0-7.75-2.87,9.26,9.26,0,0,0-7.17,3.16,10.32,10.32,0,0,0-2.87,7.17v23.53h-28.13V206.05q0-19.23,9.91-32.29t35.15-13.06a45.74,45.74,0,0,1,21.24,5,38.06,38.06,0,0,1,15.36,14.2A39,39,0,0,1,1694,200.6a81.26,81.26,0,0,1-4.45,26.11,106.64,106.64,0,0,1-11,23.54l-29.27,44.2H1694v35.3Z"/><path class="cls-2" d="M1138.09,169.82V18.28L1015.45,46.72V328l106.71,24.64H1137L1243.7,328V194.3ZM1032.7,148.14l87.9-20.28v42l-87.9,20.29Zm88.13,186.22-87.89-20.31v-2.12l78.45-18.12V275.86L1032.94,294V216l87.89,20.28Zm-25.66-139.92,26-6,44,10.17-26,6Zm131,99.53-78.46-18.11v17.95l78.46,18.12v2.12l-87.9,20.31V236.27l87.9-20.28Z"/></svg>