<?xml version="1.0" encoding="utf-8"?>
<!-- Generator: $$$/GeneralStr/196=Adobe Illustrator 27.6.0, SVG Export Plug-In . SVG Version: 6.00 Build 0)  -->
<svg version="1.1" id="Capa_1" xmlns="http://www.w3.org/2000/svg" xmlns:xlink="http://www.w3.org/1999/xlink" x="0px" y="0px"
	 viewBox="0 0 1505.9 194.7" style="enable-background:new 0 0 1505.9 194.7;" xml:space="preserve">
<style type="text/css">
	.st0{fill:#FFFFFF;}
	.st1{fill:#3D3D3D;}
	.st2{fill:#2A94FF;}
	.st3{fill:#FE734C;}
	.st4{fill:#3E3B3D;}
	.st5{fill:#787F55;}
	.st6{fill:#338BFD;}
</style>
<g>
	<g>
		<g>
			<path class="st1" d="M25.5,48H39v20.5H25.6v22h25.1v22.6H0V2.1h50.7v23.3H25.5V48z"/>
			<path class="st1" d="M109.7,113.1h-50l0.2-111h24.7v87.7h25.1V113.1z"/>
			<path class="st1" d="M142,48h13.6v20.5h-13.4v22h25.1v22.6h-50.7V2.1h50.7v23.3H142V48z"/>
			<path class="st1" d="M214.2,30.2c0-1.9-0.7-3.6-2-5.1c-1.3-1.5-3-2.2-4.9-2.2c-1.9,0-3.5,0.7-4.9,2.2c-1.3,1.5-2,3.2-2,5.1v55.3
				c0,1.9,0.7,3.5,2,4.9c1.3,1.3,3,2,4.9,2c1.9,0,3.5-0.7,4.9-2c1.3-1.3,2-3,2-4.9V69.5h18.8v18.2c0,7.8-2.6,14.3-7.8,19.5
				c-5.2,5.2-11.9,7.8-20.2,7.8h-1.1c-9.1,0-16.2-3-21.3-9c-5.2-6-7.8-13.5-7.8-22.4V27.6c0-5,1.3-9.6,3.8-13.8
				c2.6-4.2,6-7.6,10.4-10c4.4-2.5,9.4-3.7,15-3.7h1c9.6,0,16.7,3.1,21.2,9.2s6.9,13.5,6.9,22.2v14.7h-18.9V30.2z"/>
			<path class="st1" d="M280.7,30.2c0-1.9-0.7-3.6-2-5.1c-1.3-1.5-3-2.2-4.9-2.2c-1.9,0-3.5,0.7-4.9,2.2c-1.3,1.5-2,3.2-2,5.1v55.3
				c0,1.9,0.7,3.5,2,4.9c1.3,1.3,3,2,4.9,2c1.9,0,3.5-0.7,4.9-2c1.3-1.3,2-3,2-4.9V69.5h18.8v18.2c0,7.8-2.6,14.3-7.8,19.5
				c-5.2,5.2-11.9,7.8-20.2,7.8h-1.1c-9.1,0-16.2-3-21.3-9c-5.2-6-7.8-13.5-7.8-22.4V27.6c0-5,1.3-9.6,3.8-13.8
				c2.6-4.2,6-7.6,10.4-10C260,1.2,265,0,270.6,0h1c9.6,0,16.6,3.1,21.2,9.2s6.9,13.5,6.9,22.2v14.7h-18.9V30.2z"/>
			<path class="st1" d="M308.9,2.1h26v111h-26V2.1z"/>
			<path class="st1" d="M352.8,10.3c5.3-6.8,13-10.1,23.1-10.1c10,0,17.4,3.3,22.4,10c5,6.7,7.5,15.6,7.5,26.7v41.3
				c0,11.1-2.5,20-7.5,26.7c-5,6.7-12.4,10-22.4,10c-10.1,0-17.8-3.4-23.1-10.1c-5.3-6.8-7.9-15.6-7.9-26.6V36.9
				C344.9,26,347.5,17.1,352.8,10.3z M375.3,92.2c4.1,0,6.1-3.2,6.1-9.6V32.5c0-6.4-2-9.6-6.1-9.6c-4,0-5.9,3.2-5.9,9.6v50.1
				C369.4,89.1,371.3,92.2,375.3,92.2z"/>
			<path class="st1" d="M475.9,113.1h-16.8l-23.2-55.5v55.5h-20.3V2.1h20.9l19.1,42.5V2.1h20.3V113.1z"/>
			<path class="st1" d="M512.7,48h13.6v20.5h-13.4v22H538v22.6h-50.7V2.1H538v23.3h-25.3V48z"/>
			<path class="st1" d="M601.1,63.9c3.3,5.5,5,12.1,5,19.9c0,9.7-2.9,17.3-8.6,22.9c-5.7,5.6-13,8.3-21.6,8.3h-3.1
				c-9.6,0-16.8-3.1-21.8-9.3c-5-6.2-7.5-13.6-7.5-22.3V72.9H560v9c0,3.6,0.9,6.4,2.7,8.5c1.8,2.1,4.4,3.2,7.8,3.2
				c3.1,0,5.6-1,7.8-2.9c2.1-1.9,3.2-4.3,3.2-7.1c0-2.4-0.9-5-2.7-7.8c-1.8-2.7-4.6-5.4-8.4-7.9c-16.1-10.7-24.1-24.6-24.1-41.7
				c0-4.6,1.1-8.9,3.2-12.8c2.1-4,5.2-7.1,9.4-9.6c4.1-2.4,9-3.6,14.6-3.6c8.9,0,15.7,2.5,20.4,7.4c4.7,4.9,7,11.6,7,20v10.9h-17.2
				v-9c0-2.8-0.8-4.9-2.5-6.2c-1.7-1.3-3.6-2-5.7-2c-2,0-3.8,0.7-5.3,2.2c-1.5,1.5-2.2,3.5-2.2,6c0,3.1,1.3,6.1,4,9.2
				c2.7,3.1,6.1,5.9,10.3,8.4C591.5,52.8,597.8,58.4,601.1,63.9z"/>
		</g>
		<g>
			<g>
				<path class="st5" d="M659.3,1.9c8,0,14.4,2.6,19.1,7.8c4.7,5.2,7.1,11.7,7.1,19.3c0,7.5-0.8,12.8-2.4,15.9
					c-1.6,3.1-4.5,5.4-8.5,7.1v0.4c3.8,1.6,6.6,3.8,8.6,6.6c1.9,2.8,2.9,6,2.7,9.8c-0.4,15.4-0.5,24.9-0.4,28.3
					c0.1,4,1.1,8.7,2.8,14.1h-23.2c-1-1.3-1.8-3.4-2.4-6.4c-0.6-3-0.8-6-0.8-8.9l0.2-26.4c0-1.8-0.5-3.2-1.6-4.2
					c-1.1-1.1-2.4-1.6-4.1-1.6h-4.5v47.5h-24.1V1.9H659.3z M660.1,42.3c1.4-1.8,2.2-4,2.2-6.8v-3.4c0-6.7-2.8-10-8.3-10h-2.4v23h2.4
					C656.6,45,658.7,44,660.1,42.3z"/>
				<path class="st5" d="M721.1,47.2h13.4v20.2h-13.2V89h24.7v22.2H696V1.9h49.9v23h-24.9V47.2z"/>
				<path class="st5" d="M798.7,111.2l-2.4-4.5c-1.4,1.6-3.7,3.1-6.9,4.4c-3.2,1.3-6.5,2-9.9,2c-3.8,0-7.7-1-11.7-3.1
					c-4-2.1-7.5-5.9-10.5-11.5c-3-5.6-4.4-13.2-4.4-22.9V33.4c0-7.4,1.5-13.6,4.6-18.7c3.1-5,6.9-8.7,11.5-11.1
					c4.6-2.4,9.2-3.6,13.8-3.6h1.3c4.8,0,9.1,1.4,13.1,4.2c4,2.8,7.1,6.5,9.4,10.9c2.3,4.5,3.5,9,3.5,13.7v13.6h-17.5V30.8
					c0-2.3-0.8-4.2-2.5-5.8c-1.6-1.6-3.5-2.4-5.7-2.4c-2.1,0-4,0.8-5.6,2.4c-1.6,1.6-2.4,3.6-2.4,5.8v54.5c0,1.6,0.6,3.1,1.9,4.3
					c1.3,1.3,2.7,1.9,4.3,1.9c1.8,0,3.2-0.6,4.4-1.9c1.2-1.3,1.8-2.7,1.8-4.3V75h-6V56.4h28.6v54.8H798.7z"/>
				<path class="st5" d="M821.7,1.9h25.6v109.3h-25.6V1.9z"/>
				<path class="st5" d="M986.2,111.2h-16.6l-22.8-54.6v54.6h-20V1.9h20.5l18.8,41.8V1.9h20V111.2z"/>
				<path class="st5" d="M1026.9,111.2l-1.5-12.1h-12.6l-1.3,12.1h-17.9l15.8-109.3h22.8l19.2,109.3H1026.9z M1018.8,53.6h-0.2
					l-4.5,32h8.9L1018.8,53.6z"/>
				<path class="st5" d="M1106.2,111.2H1057l0.2-109.3h24.3v86.3h24.7V111.2z"/>
				<path class="st5" d="M1138,47.2h13.4v20.2h-13.2V89h24.7v22.2H1113V1.9h49.9v23H1138V47.2z"/>
				<path class="st5" d="M1225.1,62.8c3.3,5.4,4.9,11.9,4.9,19.6c0,9.5-2.8,17.1-8.5,22.5c-5.7,5.5-12.7,8.2-21.3,8.2h-3
					c-9.4,0-16.6-3-21.5-9.1c-4.9-6.1-7.3-13.4-7.3-21.9V71.6h16.2v8.9c0,3.5,0.9,6.3,2.6,8.4c1.8,2.1,4.3,3.1,7.7,3.1
					c3,0,5.6-0.9,7.6-2.8c2.1-1.9,3.1-4.2,3.1-7c0-2.4-0.9-4.9-2.6-7.6c-1.8-2.7-4.5-5.3-8.3-7.8c-15.8-10.6-23.7-24.2-23.7-41.1
					c0-4.5,1-8.7,3.1-12.6c2.1-3.9,5.1-7,9.2-9.4c4.1-2.4,8.9-3.6,14.4-3.6c8.8,0,15.5,2.4,20.1,7.3c4.6,4.8,6.9,11.4,6.9,19.7v10.7
					h-17v-8.9c0-2.8-0.8-4.8-2.4-6.1c-1.6-1.3-3.5-2-5.7-2c-2,0-3.7,0.7-5.2,2.2c-1.4,1.4-2.2,3.4-2.2,5.9c0,3,1.3,6,4,9
					c2.6,3,6,5.8,10.2,8.3C1215.6,51.9,1221.8,57.4,1225.1,62.8z"/>
				<path class="st5" d="M909.9,11.2c-4.9-6.6-12.2-9.9-22-9.9c-9.9,0-17.5,3.3-22.7,10c-5.2,6.7-7.8,15.4-7.8,26.2v40.7
					c0,10.8,2.6,19.5,7.8,26.2c5.2,6.7,12.8,10,22.7,10c9.8,0,17.1-3.3,22-9.9c4.9-6.6,7.3-15.4,7.3-26.3V37.5
					C917.2,26.5,914.8,17.8,909.9,11.2z M873.5,24.3L873.5,24.3L873.5,24.3L873.5,24.3L873.5,24.3L873.5,24.3L873.5,24.3L873.5,24.3
					L873.5,24.3L873.5,24.3L873.5,24.3L873.5,24.3L873.5,24.3L873.5,24.3z M873.5,25.2L873.5,25.2L873.5,25.2L873.5,25.2L873.5,25.2
					L873.5,25.2L873.5,25.2L873.5,25.2L873.5,25.2L873.5,25.2z M873.5,25.2L873.5,25.2L873.5,25.2L873.5,25.2L873.5,25.2L873.5,25.2
					L873.5,25.2z M873.4,25.3L873.4,25.3L873.4,25.3L873.4,25.3L873.4,25.3L873.4,25.3L873.4,25.3L873.4,25.3L873.4,25.3L873.4,25.3
					L873.4,25.3L873.4,25.3L873.4,25.3z M871.8,23.7L871.8,23.7l0-0.1l0,0l0,0h0l0,0l0,0l0,0l0,0l0,0l0,0l0,0l0,0l0,0l0,0h0l0,0
					l0.1,0l0,0l0,0l0,0l0,0l0,0l0,0l0,0l0,0l0,0l0,0l0,0l0,0l-0.1,0l0,0.1l0,0l0,0l0,0l0,0l0,0l0,0l0,0l0,0v0l0,0l0,0l0,0l0,0l0,0
					l0,0l0,0l0,0l0.1,0h0l0,0h0l0,0l0,0l0,0.1l0,0h0l0,0l0,0l0,0l0,0l-0.1,0l0,0l0,0l0,0l0,0l0,0v0l0,0l0,0l0,0l0,0l0,0l0,0l0,0l0,0
					l0,0l0,0l0,0l0,0L871.8,23.7L871.8,23.7L871.8,23.7L871.8,23.7z M871,26.2L871,26.2L871,26.2L871,26.2L871,26.2L871,26.2
					L871,26.2l0-0.1l0,0l0,0l0,0l0,0l0,0l0,0l0,0l0,0l0,0l0,0l0,0l0,0l0,0l0,0l0-0.1l0,0l0,0l0,0l0-0.1l0,0l0,0l0,0l0,0l0,0l0,0l0,0
					l0,0l0,0l0,0l0,0l0,0l0,0l0,0l0,0l0-0.1l0,0l0,0l0,0v0l0,0l0,0l0,0l0-0.1l0.1-0.1l0-0.1l0-0.1l0,0l0,0l0,0l0,0h0l0,0l0,0
					l0.1-0.1v0l0.1-0.1l0,0l0,0h0l0,0l0,0l0,0l0,0v0l0.1,0.1l0,0l0,0l0,0l0,0l0,0l0,0l0,0l0.1,0l0.1-0.1l0,0l0,0l0,0l0.1-0.1l0-0.1
					l0-0.1l0,0l0,0l0,0l0-0.1l0,0l0,0l0,0l0,0l0.1,0l0.1,0l0,0l0,0v0l0,0l0,0l0,0l0,0l0,0l0,0h0l0,0l0,0l0.1,0l0,0l0,0.1l0,0l0,0
					l0,0l0,0l0,0l0,0l0,0.1l0,0.1l0,0l0,0l0.1,0l0,0h0l0,0l0,0l0,0l0,0l0,0h0l0.1,0l0,0l0,0l0,0.1l0,0.1l0,0l0,0l0,0l0,0l0,0l0,0
					l0,0l0,0l0,0h0l0,0l0,0l0,0v0l0,0l0,0l0,0l0,0l0,0l0,0l0,0l0,0l0,0l0,0l0,0l0,0l0,0.1l0,0l0,0h0l0,0l0,0l0,0v0l0,0l0,0l0,0l0,0
					l0,0l0,0l0,0l0,0l-0.1,0l0,0l0,0l0,0l0,0l0,0l0,0l0,0l0,0h0l0,0l0.1,0l0.1,0l0,0l0,0l0,0h0l0,0l0,0l0,0l0,0l0,0l0,0.1l0,0.1l0,0
					l0,0l0,0h0l0,0l0,0l0,0l0,0l0,0l0,0l-0.1,0l0,0l0,0l0,0l0,0l0,0l0,0l0.1,0l0,0l0,0l0,0.1l0,0l0,0l0,0l0,0l0,0l0,0l0,0.1l0,0l0,0
					l0,0l0,0l0,0.1l0,0.1l0,0.1l0,0l0,0.1l0,0l0,0l0,0l0,0.1l0,0l0,0l0,0l-0.1,0l0,0l0,0l0,0l-0.1,0l0,0l-0.1,0l0,0l0,0l0,0l0,0l0,0
					l-0.1,0l-0.1,0.1l0,0l0,0l0,0l0,0l-0.1,0.1l0,0l-0.1,0.1l0,0l0,0l0,0l0,0l0,0l0,0h-0.1v0l0,0l0,0l-0.1,0l-0.1,0.1l0,0l0,0h0
					l-0.1,0l-0.1,0l0,0l0,0l0,0l0,0l0,0l0,0v0l0,0l0,0l0,0l0,0l0,0l0-0.1l0,0l0,0l0,0l0,0l0,0l0,0l0-0.1l0,0l0,0l0,0l0,0l0,0l0-0.1
					l0,0l0,0l0,0l0,0l0,0l0,0l0,0L871,26.2L871,26.2L871,26.2L871,26.2z M871,26.4L871,26.4L871,26.4L871,26.4L871,26.4L871,26.4
					L871,26.4L871,26.4z M869.7,21.6L869.7,21.6L869.7,21.6L869.7,21.6l0.1-0.1l0,0l0,0l0,0l0,0l0,0l0,0v0l0,0l0,0l0,0l0,0l0,0
					L869.7,21.6L869.7,21.6L869.7,21.6L869.7,21.6L869.7,21.6L869.7,21.6z M867.1,27.9L867.1,27.9l0-0.2l0.1-0.1l0,0l0,0l0.1-0.1
					l0.1-0.2v-0.1l0,0l0-0.1l0,0l0,0l0,0l0,0v0l0,0l0,0l0,0l0,0l0-0.2l0-0.2l0,0l0,0h0l0-0.1l0,0l0,0l0,0l0,0l0,0l0,0l0,0l0,0l0,0
					l0,0h0l0,0h0l0,0h0l0,0l0,0v0l0,0l0,0l0,0l0,0l0,0l0,0l0,0l0,0l-0.1,0l0,0l-0.1,0l0,0l0,0l-0.1,0l-0.1-0.1l0,0l0,0l0-0.1l0-0.1
					l0-0.1l0.1-0.1l0-0.1l0-0.1l0,0l0,0l0,0l0,0l0,0l0.1-0.1l0,0l0,0l0,0l0,0l0,0l0,0l0-0.1l0.1,0l0-0.1l0,0l0,0l-0.1-0.1l0-0.1
					l0-0.1l0-0.1l0,0l0-0.1l0-0.1l0,0l0.1-0.1l0-0.1l0,0l0,0l0.1-0.1l0,0l0,0l0,0l0,0v0l0,0l0,0l0,0l0-0.1l0,0l0,0l0.1-0.1l0,0
					l0-0.1h0l0,0l0,0l0,0l0,0l0-0.1l0,0l0,0v0l0,0l0,0l0-0.1l0,0l0,0l0,0l0,0l0,0l0,0l0,0l0,0l0,0l0,0l0,0l0,0l0,0l0,0h0l0,0l0-0.1
					l0,0l0,0l0,0l0,0l0,0l0,0l0,0l0,0l0,0l0.1-0.1l0,0l0,0l0-0.1l0,0l0,0l0,0l0.1,0l0.2-0.1l0,0l0.1-0.2l0,0l0.1-0.1l0.1-0.1l0,0
					l0,0l0.2-0.1l0.1,0l0,0.1l0.1,0l0.1,0.1l0,0l0.1,0l0,0l0,0l0,0l0.1,0.1l0.1,0.1l0,0l0,0l0,0l0,0l0.1,0l0,0l0.1,0l0.1,0.1l0.1,0
					l0,0h0l0,0l0,0l0,0l0,0l0,0l0,0l0,0l0,0l0,0h0l0,0l0,0l0,0h0l0,0l0,0l0,0l0,0l0,0h0l0,0l0,0l0,0v0l0,0l0,0h0l0,0l0,0l0,0l0,0
					l0,0l0,0h0l0,0l0,0l0,0l0,0h0l0,0l0,0l0,0l0,0l-0.1,0l0,0l-0.1,0l0,0l0,0l0,0l0,0l-0.1,0.1l0,0l0,0l0,0l0,0l0,0l0,0l0,0v0l0,0
					l0.1,0.1l0.1,0.1l0,0l0,0l0,0.1l0,0l0,0l0,0l0,0l0,0v0l0,0v0l0,0l0,0l0,0l-0.1-0.1v0l0,0l0,0l0,0l0,0l-0.1,0l0,0l0,0v0h0l0,0h0
					l0,0l0,0h0l0,0h0l0,0l0,0h0l-0.1,0l0,0l-0.1,0l0,0h0l0,0l0,0l0,0l0,0.1l0,0l0,0l0,0l0,0l0,0l0,0l0,0l0,0l0,0l0,0l0,0l0,0l0,0
					l0,0l0,0l0,0l0,0l0,0l0,0l0,0l0,0l0,0l0,0l0,0l0,0l0,0l0,0l0,0l0,0l0,0l0,0l0,0l0,0l0.1,0l0,0l0,0v0l0,0l0,0l0,0l0,0l0,0l0,0
					l0,0l0,0l0,0l0,0l0,0l0,0l-0.1,0l-0.1,0h0l-0.1,0l0,0l0,0l0,0l0,0v0l0,0l0,0l0,0l0,0l0,0l0,0v0l0,0l0,0l0,0l0,0l0,0l0,0l0,0l0,0
					h0l0,0l0,0l0,0.1l0,0l0,0l0,0.1l0,0l0,0l0,0l0,0l0,0l0,0l0,0l0,0l0,0l0,0.1l0,0l0,0l0,0l0,0.1l0,0.1l0,0l0,0l0,0.1l0,0l-0.1,0
					l-0.1,0l-0.1,0.1l0,0l0,0l0,0.1l0,0l0,0l0,0l0,0l0,0v0.1l0,0l0,0l0,0.1l0,0l0,0l0,0v0l0,0h0l0,0l0,0l0,0l0,0v0l0,0l0,0l0,0l0,0
					l0,0l0,0.1l0,0l0,0l0,0l0,0v0l0,0l0,0l0,0l-0.1,0l-0.1,0l0,0l0,0l0,0.1l0,0l0,0l0,0l0,0l0,0.1l0,0l0,0l0,0l0,0l0,0l0,0.1l0,0
					l0,0l0,0l0,0.1l0,0l0,0l0,0l0,0l0,0.1l0,0l0,0.1l0,0l0,0l0,0.1l0,0l0,0v0l0,0l0,0v0l0,0l0,0l0,0l-0.1,0.1l0,0.1l-0.1,0.1l0,0
					l0,0.1l0,0.1l0,0l0,0l-0.1,0.2l-0.1,0.2l0,0l0,0l0,0l-0.1,0.1l-0.1,0.1l-0.1,0l0,0l0-0.1l0,0l0,0l0,0l-0.1,0v0l0,0l0,0l0,0l0,0
					l0,0l0,0l0,0l0,0l0,0l0,0l0,0l0,0l0,0l0,0l0,0l0,0l0,0l0,0v0l0,0l0,0l0,0l0,0L867.1,27.9L867.1,27.9L867.1,27.9L867.1,27.9
					L867.1,27.9z M869.8,24.5L869.8,24.5L869.8,24.5L869.8,24.5L869.8,24.5L869.8,24.5l0.1,0l0,0l0,0l0,0L869.8,24.5L869.8,24.5
					L869.8,24.5L869.8,24.5L869.8,24.5z M869.8,24.3L869.8,24.3L869.8,24.3L869.8,24.3L869.8,24.3L869.8,24.3L869.8,24.3L869.8,24.3
					L869.8,24.3L869.8,24.3L869.8,24.3L869.8,24.3l-0.1-0.1l0,0l0,0l0,0l0,0l0,0L869.8,24.3L869.8,24.3L869.8,24.3z M869.6,23.2
					L869.6,23.2L869.6,23.2L869.6,23.2L869.6,23.2L869.6,23.2L869.6,23.2L869.6,23.2L869.6,23.2L869.6,23.2L869.6,23.2L869.6,23.2
					L869.6,23.2L869.6,23.2L869.6,23.2z M869.1,25L869.1,25L869.1,25L869.1,25L869.1,25L869.1,25L869.1,25L869.1,25L869.1,25z
					 M869.1,24.9L869.1,24.9L869.1,24.9L869.1,24.9L869.1,24.9L869.1,24.9L869.1,24.9z M910.1,69.9c-0.1-0.9-0.8-1.7-1.3-2.4
					c-1.6,0-1.9,3.2-3.3,0.5c-0.9,1.3,1.1,1.2-1.7,1.2c-1.9,0.4-5.8-1.4-5.2,1.6c-0.1,1.1,0,1.1,0.9,1c0.7,0.2,1.6-0.2,1.7,0.7
					c0.3,0.1,0,0.5,0,0.7c0.5,0.3-0.1,0.4-0.4,0.4c-0.1-0.1-0.5-0.2-0.7-0.4c-0.4-0.1-0.6,0.5-0.9,0.2c-0.4,0.5-1.5,0.1-1.5,0.6
					c0.1,1.2-0.6,3,0.8,3.6c0.3,0.5,1,0.4,1.1,1.1c0.1,0.3-0.3,0.5,0.1,0.8c0.7,1.2,0.8,1.7,0.4,3.3c-0.6,3.5-1.3,7.1-1.9,10.6
					c-0.1,0.3-0.2-0.4-0.4-0.4c-0.7-0.1-0.5-0.8-1-1.1c-3.1,0.7-0.4-2.1,0.3-3.4c0.7-1,1.1-1.3-0.1-1.6c-0.1-0.6-0.6,0.1-0.5-0.5
					c-0.4,0.2-0.9-0.6-1-0.2c-0.3,0.1-0.3-0.3-0.4-0.5c-0.4,0-0.6-0.5-1-0.5c-0.5-0.4-0.1,0.3-0.4,0.2c-0.3-0.2-0.4,0.2-0.6,0.3
					c-0.3,0.1-0.6,0-0.9,0.2c0-0.2-0.2-0.8-0.3-0.2c-0.1-0.3-0.2-0.4-0.6-0.5c-0.5-0.2-0.9-0.2-1.2,0.5c-0.7,0.1-1.1,0.4-1.7,0.6
					c-0.4,0-1.2-0.8-1.3-0.2c-0.2,0.2-0.1-0.1-0.2-0.2c-0.2,0.2-0.2,0-0.4,0.1c-0.3,0.2-0.5,0.1-0.6-0.2c-0.3-0.3-0.6,0.1-0.7-0.4
					c-0.3-0.2,0.1-0.5,0.2-0.7c-0.3-0.3-0.1-0.7-0.3-1c0-0.7-0.7,0-1-0.4c-0.6-0.2-0.1-0.5-0.2-0.9c0.1-0.3-0.5-0.3-0.3-0.6
					c-0.2-0.3-0.6-0.9-1-0.6c-0.4,0.1-0.3-0.6-0.7-0.4c-0.1,0,0.1-0.2-0.1-0.2c-0.2,0.3-0.3-0.2-0.3-0.3c-0.4,0.2-0.9-0.2-1.1-0.6
					c0.3,0,0.3-0.3,0-0.3c-0.3-0.2,0-0.6-0.3-0.8c-0.3-0.5-0.9-0.9-1.4-1c-0.1,0,0-1-0.5-0.4c-0.7-0.1-1.1-1.3-1.6-0.5
					c-0.7-0.1-1.1-0.8-1.7-0.7c-0.7,0-1.1-0.7-1.4-1.2c-0.2,0.1-0.9-0.3-1.1-0.4c-0.4,0.3-0.5,0.3-0.4,0.8c-0.2,0-0.7,0.3-0.8,0
					c-0.5-0.2-0.6,0.1-1.1,0c-0.5-0.4-1-0.4-1.5-0.5c-0.8,0-0.8-0.6-0.9-1.2c-0.9,0.1-0.7-1.1-1.5-0.6c-0.8-0.4-2-0.7-2.7-1.5
					c-0.6-0.2-1.4-0.8-1.5-1.5c-0.1,0-1.1-0.3-0.5-0.5c0.3-0.6,0.8-0.8,1.4-0.5c0.3,0.2,0.4-0.1,0.4-0.4c-0.2,0-0.2,0-0.2-0.4
					c-0.1-0.3-0.2,0-0.3,0.1c-0.1-0.3-0.3-0.7-0.1-1c0.6-0.9,0.5-0.9,1.3-1.7c0.2-0.3,0.6,0.9,0.4,0.1c0.1-0.7,0.2,0.7,0.7,0.4
					c0.3-0.5-0.3-0.6,0.6-0.7c0.2,0.1,0.3,0.2,0.3,0.4c0.2,0.1,0.7,0.1,0.6-0.2c-0.2-0.3-0.4-0.5,0.1-0.6c-0.1,0-0.3,0-0.1-0.1
					c0.1,0,0.4,0.2,0.3,0c-0.5-0.1,0.6-0.2,0.2-0.3c-0.3,0.2-0.3-0.2-0.1-0.2c0.1,0.2,0.3,0.1,0.3-0.1c-0.1,0-0.1-0.1,0-0.2
					c0-0.1-0.2-0.1-0.1-0.1c-0.6,0.2,0.3-0.4,0.5-0.8c0.2-0.1,0.3-0.2,0-0.2c0.4-0.4,0.5-0.7,0.9-0.3c-0.3-0.4-0.1-0.3,0-0.7
					c-0.1-0.1,0.1-0.1,0,0c0,0,0.2,0.1,0.2,0c-0.2-0.1,0.1-0.3-0.2-0.2c0-0.2,0.3,0,0.1-0.1c0.2-0.2,0.2,0,0.4-0.1
					c-0.1,0,0.1-0.4,0.2-0.3c0.4-0.2-0.3,0,0.2-0.3c-0.4,0.1-0.4-0.2,0-0.1c-0.3-0.1-0.1,0,0-0.2c-0.3-0.1,0.2-0.3,0.4-0.6
					c-0.4-0.1-0.3,0.3-0.9,0.3c-0.3-0.2-0.3-0.7,0.1-0.5c0.2-0.1-0.2,0.1,0-0.1c0.2-0.2,0.2-0.3-0.1-0.4c-0.1-0.1,0,0.1-0.1,0.1
					c-0.2-0.1-0.1,0.1-0.2,0.1c0,0.5-0.1,0.6-0.5,0.2c0-0.6-0.1-0.8,0.6-0.8c0.4-0.5-0.8,0.3-0.2-1.4c0.1-0.5-0.2-1.2,0.2-0.6
					c-0.2-0.4-0.4-0.7-0.4-1.2c0.1-0.8,0-1.4-0.1-1.9c-0.1-0.1-0.2-0.2-0.4-0.2c0,0.1-0.4,0.1-0.2,0c0.2-0.3,0.5-0.5,0.9-0.4
					c0.6-0.6,0.2-0.9-0.1-1.7c-0.1,0.2-0.7-0.8-0.5-1.1c0.5,0.6,0.3-0.3,0.4-0.4c0,0.1,0-0.5,0.1-0.7c-0.2-0.2-0.5-1-0.7-0.4
					c-0.2,0-0.2-0.9-0.7-0.8c0.4-1.2-1.1-0.7-0.7-2c0.3-0.8,0.6-0.3,0.4-1.4c0.4-0.1,0.5,0.5,0.7,0.7c0.6-0.4,1-0.6,1-1.2
					c0.3-0.8,0.9-0.1,0.5-1.1c-0.2-0.3-0.3-0.6-0.6-0.8c-0.1-0.3,0-0.8-0.4-0.7c-0.2-0.2,0.3-0.4,0.2-0.7c0.4-0.4,0.5,0.1,0.7,0.5
					c0.6,0.1,0.8,1.1,1.2,0.9c0.1,0.1,0,0.3,0.1,0.3c0.2-0.1-0.1,0.1,0,0.2c0.2,0.2,0.4-0.3,0.4,0.1c0.1,0-0.2,0.1,0,0.2
					c0,0-0.2,0,0,0.1c-0.7-0.1-0.2,0.9,0.4,0.5c0-0.7,0.3-2-0.6-2.5c-0.5-0.2,0.9-0.5,1-0.7c0.3-0.4,1-0.8,1.4-1.1
					c0.5-0.5,0.5-1.5,1.3-1.7c0.1-0.3,0.5-0.3,0.7-0.2c-0.3,0-0.2,0.2,0.1,0.1c0.8,0.3,1.2-1.3,0.3-1.2c0.5-0.6,0.4-1.6,0.7-2.2
					c0.1-0.3-0.8,0.7-0.6,0.2c0.3-0.1,0.3-0.4,0.4-0.5c0.3,0.2,0.4-0.4,0.1-0.5c-0.2,0.2,0.1-0.3,0.2-0.3c-0.1,0.5,0.2,0.1,0-0.2
					c-0.2-0.2,0.1-0.1,0.2-0.3c0-0.2,0.6-0.4,0.8-0.5c0,0.2,0.2,0.1,0.1,0c0-0.1-0.4,0,0-0.2c2.6-1.8,0.8-1,3.7-0.7
					c0.3,0.2-1.1-0.3-0.7,0.5c-0.2-0.3-0.7,0.2-0.4,0.3c0-0.3,0.2-0.1,0.2,0.1c0.3,0.1,0-0.1,0.1-0.3c0.3,0.3,0.4,0.8,0.7,0
					c0-0.5,0.6-0.9,0.4-1.4c-0.1-0.6,0.5-0.7,0.7-0.7c2.2,0.8,3.6,0.2,5.4-1.5c1-0.4,2.6-0.6,2.5-2c-0.3-0.4,0.4-0.3,0.7-0.3
					c-0.1,0.1-0.2,0.6,0.1,0.4c0-0.1,0.1-0.2,0.3-0.2c0-0.2-0.1-0.4-0.3-0.3c0-0.1,0.4-0.4,0.5-0.5c0,0-0.2,0.4,0.1,0.2
					c0.4-0.1,0.2-0.5,0.4-0.1c-0.1-0.1,0.4-0.3,0.1-0.2c-0.2,0,0.1-0.1,0-0.1c-0.1,0-0.1,0-0.1,0c0,0-0.1,0-0.1,0.1
					c0.1-0.1,0.1-0.1,0.1-0.1c0.5-0.3,2.1,0.4,2.2,1.2c0.6,0.7-0.6,0.7-0.7,1.2c-1.8,0.8-3,0.4-3.7,2.7c-0.1,0.5-0.8,0.2-1.1,0.4
					c-0.5,0.9-1.1,1.9-1.7,2.8c-0.2,1.1-0.1,2.4-0.7,3.3c-0.5,0.9-2.4,2.9,0,1.7c0.5-0.5,0.3,0.4,0.5,0.6c0.9-0.5,0.7,0.5,1,1.2
					c0.1,0.8,0.7,1.4,1.3,1.9c0.1,0.3,0.1,0.8,0.3,1.1c0.1,0.2-0.1,0.3-0.3,0.2c0,0.2-0.2,0.3-0.3,0.4c0.4,0.7-0.6,2.5,1,2.3
					c0.4,0.1,0.2,0.5,0.4,0.8c0.2,0.7,1.2,1.1,1.7,0.7c0.4-0.1,0.7,0,1.2,0.1c0.5-0.2,0.8,0.2,1.2,0.2c0.8-0.1,1.6-0.7,2.4-0.5
					c0.4,0.5,1.1,0.6,1.7,0.4c1.4,1,2.2,3.9,4,3.6c0.8-1,2.1,0.2,3.1-0.3c0.8,0,1.9,0,2.4-0.5c0.6,0,1.8,0.2,1.4,0.8
					c0.9,0.8-1.3,1.3-0.5,2.3c-0.1,0.6-1.3,0.6-0.8,1.4c0,0.9,0,1.8-0.2,2.7c0.1,0.3,0.5,0.6,0.3,1.2c0,0.4,0.3,0.7,0.4,1.1
					c0.1,0.5,0.2,1.2,0.8,1.2c1.3,1.8,0.4,1.7-0.9,3c-1,0.9-0.3,0.6,0.5,0.8c0.2,0.6,0.7,0.7,1.1,1.2c1.2,1,0.3,0.3,0.7,1.5
					c0.4,0.2,0.2,0.5,0.2,0.7c0.5,0.8,0.9,2,0.9,2.9C910.1,72.1,909.9,70.7,910.1,69.9z"/>
			</g>
			<path class="st1" d="M1249.6,111.8V88.7l21.2-30.8c3.4-4.9,6-9.4,7.8-13.7c1.8-4.3,2.7-8.7,2.7-13.3c0-2.5-0.6-4.4-1.9-5.6
				c-1.3-1.2-2.9-1.9-5.1-1.9c-1.9,0-3.4,0.7-4.7,2.1c-1.3,1.4-1.9,2.9-1.9,4.7v15.4h-18.4V30.9c0-8.4,2.2-15.4,6.5-21.1
				c4.3-5.7,12-8.5,23-8.5c5,0,9.6,1.1,13.9,3.3c4.3,2.2,7.6,5.3,10,9.3c2.4,4,3.7,8.5,3.7,13.5c0,5.6-1,11.3-2.9,17.1
				c-1.9,5.8-4.4,10.9-7.2,15.4l-19.1,28.9h29.3v23.1H1249.6z"/>
			<path class="st1" d="M1360,5.2c4.6,2.8,8.3,6.4,11.1,11.1c2.8,4.6,4.1,9.7,4.1,15.2v52c0,5.5-1.4,10.6-4.1,15.2
				c-2.8,4.6-6.4,8.3-11.1,11.1c-4.6,2.8-9.7,4.1-15.2,4.1c-5.5,0-10.6-1.4-15.2-4.1c-4.6-2.8-8.3-6.4-11.1-11.1
				c-2.8-4.6-4.1-9.7-4.1-15.2v-52c0-5.5,1.4-10.6,4.1-15.2c2.8-4.6,6.4-8.3,11.1-11.1c4.6-2.8,9.7-4.1,15.2-4.1
				C1350.3,1,1355.3,2.4,1360,5.2z M1348.9,25.5c-1.1-1.2-2.5-1.8-4.1-1.8c-1.6,0-3,0.6-4.2,1.8c-1.2,1.2-1.8,2.6-1.8,4.2v54.4
				c0,1.6,0.6,3,1.8,4.2c1.2,1.2,2.6,1.8,4.2,1.8c1.6,0,3-0.6,4.1-1.8c1.1-1.2,1.7-2.6,1.7-4.2V29.7
				C1350.6,28.1,1350,26.7,1348.9,25.5z"/>
			<path class="st1" d="M1384.2,111.8V88.7l21.2-30.8c3.4-4.9,6-9.4,7.8-13.7c1.8-4.3,2.7-8.7,2.7-13.3c0-2.5-0.6-4.4-1.9-5.6
				c-1.3-1.2-2.9-1.9-5.1-1.9c-1.9,0-3.4,0.7-4.7,2.1c-1.3,1.4-1.9,2.9-1.9,4.7v15.4H1384V30.9c0-8.4,2.2-15.4,6.5-21.1
				c4.3-5.7,12-8.5,23-8.5c5,0,9.6,1.1,13.9,3.3c4.3,2.2,7.6,5.3,10,9.3c2.4,4,3.7,8.5,3.7,13.5c0,5.6-1,11.3-2.9,17.1
				c-1.9,5.8-4.4,10.9-7.2,15.4l-19.1,28.9h29.3v23.1H1384.2z"/>
			<path class="st1" d="M1466.6,73.9v11.1c0,1.9,0.7,3.5,2,4.8c1.3,1.3,2.9,2,4.8,2c1.9,0,3.5-0.7,4.8-2c1.3-1.3,2-2.9,2-4.8V68.4
				c0-1.9-0.7-3.4-2-4.7c-1.3-1.2-2.9-1.9-4.8-1.9h-6.8V46.6h6.8c1.9,0,3.5-0.6,4.8-1.9c1.3-1.2,2-2.8,2-4.7v-9.9
				c0-1.9-0.7-3.5-2-4.8c-1.3-1.3-2.9-2-4.8-2c-1.9,0-3.5,0.7-4.8,2c-1.3,1.3-2,2.9-2,4.8v5.4h-18.4v-7.5c0-7.6,2.5-14,7.6-19.1
				c5.1-5.1,11.7-7.7,19.8-7.7h1.1c9,0,16,2.5,21,7.6c5,5.1,7.5,11.5,7.5,19.2v11.5c0,3-0.9,6-2.8,8.9c-1.9,2.9-4.3,4.9-7.3,5.7
				c6.8,2.3,10.1,7.8,10.1,16.7v12.2c0,8.8-2.5,16.1-7.6,22c-5.1,5.9-12,8.8-20.9,8.8h-1.1c-8.1,0-14.7-2.6-19.8-7.7
				c-5.1-5.1-7.6-11.5-7.6-19.1V73.9H1466.6z"/>
		</g>
	</g>
	<g>
		<g>
			<g>
				<path class="st6" d="M1346.8,139.4l11.2,31.3l11.2-31.3h10.1l-16.7,45.1h-9.1l-16.7-45.1H1346.8z"/>
				<path class="st6" d="M1382.6,183.7c-1.6-0.9-2.9-2.1-3.9-3.7c-1-1.6-1.5-3.5-1.5-5.7c0-2.1,0.5-4,1.5-5.7c1-1.6,2.3-2.9,4-3.8
					c1.7-0.9,3.6-1.3,5.6-1.3c1.2,0,2.3,0.1,3,0.4c0.8,0.2,1.7,0.6,2.8,1v-0.6c0-1.2-0.4-2.1-1.3-2.7c-0.9-0.7-2-1-3.3-1
					c-1.8,0-3.4,0.7-4.8,2l-4.5-6.4c1.1-1.2,2.6-2.3,4.5-3c1.9-0.8,4-1.2,6.3-1.2c3.8,0,6.9,1.1,9.1,3.3c2.3,2.2,3.4,5.2,3.4,9.1
					v20.2h-9.4v-1.6c-0.6,0.6-1.5,1.1-2.7,1.5c-1.2,0.4-2.4,0.5-3.6,0.5C1386,184.9,1384.2,184.5,1382.6,183.7z M1393.1,176.9
					c0.8-0.7,1.1-1.6,1.1-2.7c0-1.2-0.4-2.1-1.1-2.8c-0.8-0.7-1.6-1-2.7-1c-1,0-1.9,0.3-2.7,1c-0.8,0.7-1.1,1.6-1.1,2.8
					c0,1.1,0.4,2,1.1,2.7c0.8,0.7,1.6,1,2.7,1C1391.4,177.9,1392.3,177.6,1393.1,176.9z"/>
				<path class="st6" d="M1417.2,182.8c-2.5-1.4-4.5-3.4-6-5.9c-1.4-2.5-2.2-5.3-2.2-8.4c0-3.1,0.7-5.9,2.2-8.4
					c1.4-2.5,3.4-4.5,6-5.9c2.5-1.4,5.4-2.2,8.6-2.2c3.4,0,6.4,0.8,8.9,2.4c2.5,1.6,4.5,3.8,5.8,6.7l-8.3,4.3
					c-0.5-1.4-1.3-2.5-2.5-3.2c-1.1-0.7-2.5-1.1-4-1.1c-2.1,0-3.8,0.7-5.2,2.1s-2,3.2-2,5.4c0,2.2,0.7,4.1,2,5.4
					c1.4,1.4,3.1,2.1,5.2,2.1c1.5,0,2.9-0.4,4-1.1c1.1-0.7,1.9-1.8,2.5-3.2l8.3,4.3c-1.3,2.9-3.3,5.1-5.8,6.7
					c-2.5,1.6-5.5,2.4-8.9,2.4C1422.6,184.9,1419.7,184.2,1417.2,182.8z"/>
				<path class="st6" d="M1461.6,133.9l3.8,7.7l-16.5,7.7l-3.7-7.7L1461.6,133.9z M1455.7,152.3v32.2h-9.4v-32.2H1455.7z"/>
				<path class="st6" d="M1467.1,183.7c-1.6-0.9-2.9-2.1-3.9-3.7c-1-1.6-1.5-3.5-1.5-5.7c0-2.1,0.5-4,1.5-5.7c1-1.6,2.3-2.9,4-3.8
					c1.7-0.9,3.6-1.3,5.6-1.3c1.2,0,2.3,0.1,3,0.4c0.8,0.2,1.7,0.6,2.8,1v-0.6c0-1.2-0.4-2.1-1.3-2.7c-0.9-0.7-2-1-3.3-1
					c-1.8,0-3.4,0.7-4.8,2l-4.5-6.4c1.1-1.2,2.6-2.3,4.5-3c1.9-0.8,4-1.2,6.3-1.2c3.8,0,6.9,1.1,9.1,3.3c2.3,2.2,3.4,5.2,3.4,9.1
					v20.2h-9.4v-1.6c-0.6,0.6-1.5,1.1-2.7,1.5c-1.2,0.4-2.4,0.5-3.6,0.5C1470.5,184.9,1468.7,184.5,1467.1,183.7z M1477.5,176.9
					c0.8-0.7,1.1-1.6,1.1-2.7c0-1.2-0.4-2.1-1.1-2.8c-0.8-0.7-1.6-1-2.7-1c-1,0-1.9,0.3-2.7,1c-0.8,0.7-1.1,1.6-1.1,2.8
					c0,1.1,0.4,2,1.1,2.7c0.8,0.7,1.6,1,2.7,1C1475.9,177.9,1476.8,177.6,1477.5,176.9z"/>
				<path class="st6" d="M1495.7,183.2c-1.2-1.2-1.7-2.6-1.7-4.3c0-1.7,0.6-3.1,1.7-4.3c1.2-1.2,2.6-1.8,4.2-1.8
					c1.7,0,3.1,0.6,4.3,1.7c1.2,1.2,1.7,2.6,1.7,4.3c0,1.7-0.6,3.1-1.8,4.3c-1.2,1.2-2.6,1.7-4.2,1.7
					C1498.2,184.9,1496.8,184.4,1495.7,183.2z"/>
			</g>
		</g>
		<g>
			<g>
				<path class="st6" d="M1066.1,139.4v36h20.2v9.1h-29.9v-45.1H1066.1z"/>
				<path class="st6" d="M1096.5,183.7c-1.6-0.9-2.9-2.1-3.9-3.7c-1-1.6-1.5-3.5-1.5-5.7c0-2.1,0.5-4,1.5-5.7c1-1.6,2.3-2.9,4-3.8
					c1.7-0.9,3.6-1.3,5.6-1.3c1.2,0,2.3,0.1,3,0.4c0.8,0.2,1.7,0.6,2.8,1v-0.6c0-1.2-0.4-2.1-1.3-2.7c-0.9-0.7-2-1-3.3-1
					c-1.8,0-3.4,0.7-4.8,2l-4.5-6.4c1.1-1.2,2.6-2.3,4.5-3c1.9-0.8,4-1.2,6.3-1.2c3.8,0,6.9,1.1,9.1,3.3c2.3,2.2,3.4,5.2,3.4,9.1
					v20.2h-9.4v-1.6c-0.6,0.6-1.5,1.1-2.7,1.5c-1.2,0.4-2.4,0.5-3.6,0.5C1099.9,184.9,1098.2,184.5,1096.5,183.7z M1107,176.9
					c0.8-0.7,1.1-1.6,1.1-2.7c0-1.2-0.4-2.1-1.1-2.8c-0.8-0.7-1.6-1-2.7-1c-1,0-1.9,0.3-2.7,1c-0.8,0.7-1.1,1.6-1.1,2.8
					c0,1.1,0.4,2,1.1,2.7c0.8,0.7,1.6,1,2.7,1C1105.3,177.9,1106.2,177.6,1107,176.9z"/>
				<path class="st6" d="M1135.2,183.3c-2.2-1.1-3.9-2.6-5.2-4.5c-1.3-1.9-2.1-3.9-2.5-6.1l9.5-2.1c0.2,1.5,0.8,2.7,1.7,3.7
					c0.9,0.9,2.2,1.4,3.7,1.4c1.6,0,2.8-0.5,3.8-1.5c0.9-1,1.4-2.4,1.4-4c0-1.2-0.3-2.2-0.8-3c-0.5-0.8-1.2-1.3-2.1-1.7
					c-0.9-0.4-2-0.8-3.5-1.3c-0.3-0.1-0.5-0.2-0.8-0.3c-0.3-0.1-0.5-0.1-0.7-0.2c-3.1-1.1-5.6-2.6-7.4-4.5c-1.9-1.8-2.8-4.3-2.8-7.5
					c0-2.4,0.6-4.6,1.7-6.5c1.1-1.9,2.7-3.4,4.6-4.5c2-1.1,4.2-1.6,6.7-1.6c2.7,0,5.1,0.6,7.1,1.8c2,1.2,3.6,2.8,4.7,4.9l-7.7,5.4
					c-0.4-0.9-0.9-1.6-1.6-2.1c-0.7-0.5-1.5-0.8-2.4-0.8c-1,0-1.9,0.3-2.5,0.9c-0.6,0.6-0.9,1.4-0.9,2.3c0,1.2,0.5,2.2,1.4,2.8
					c0.9,0.6,2.5,1.3,4.7,2c1,0.3,1.7,0.6,1.9,0.6c3.2,1.2,5.7,2.7,7.6,4.7c1.8,2,2.7,4.8,2.7,8.3c0,2.9-0.7,5.5-2,7.8
					c-1.3,2.3-3.1,4.1-5.4,5.4c-2.3,1.3-4.8,1.9-7.6,1.9C1139.9,184.9,1137.4,184.4,1135.2,183.3z"/>
				<path class="st6" d="M1163.9,147.5c-1.2-1.2-1.7-2.6-1.7-4.3c0-1.7,0.6-3.1,1.7-4.3c1.2-1.2,2.6-1.8,4.2-1.8
					c1.7,0,3.1,0.6,4.3,1.7c1.2,1.2,1.7,2.6,1.7,4.3c0,1.7-0.6,3.1-1.8,4.3c-1.2,1.2-2.6,1.7-4.2,1.7
					C1166.5,149.3,1165.1,148.7,1163.9,147.5z M1172.9,152.3v32.2h-9.4v-32.2H1172.9z"/>
				<path class="st6" d="M1189.5,138.5v46h-9.4v-45L1189.5,138.5z"/>
				<path class="st6" d="M1206.1,138.5v46h-9.4v-45L1206.1,138.5z"/>
				<path class="st6" d="M1217.5,183.7c-1.6-0.9-2.9-2.1-3.9-3.7c-1-1.6-1.5-3.5-1.5-5.7c0-2.1,0.5-4,1.5-5.7c1-1.6,2.3-2.9,4-3.8
					c1.7-0.9,3.6-1.3,5.6-1.3c1.2,0,2.3,0.1,3,0.4c0.8,0.2,1.7,0.6,2.8,1v-0.6c0-1.2-0.4-2.1-1.3-2.7c-0.9-0.7-2-1-3.3-1
					c-1.8,0-3.4,0.7-4.8,2l-4.5-6.4c1.1-1.2,2.6-2.3,4.5-3c1.9-0.8,4-1.2,6.3-1.2c3.8,0,6.9,1.1,9.1,3.3c2.3,2.2,3.4,5.2,3.4,9.1
					v20.2h-9.4v-1.6c-0.6,0.6-1.5,1.1-2.7,1.5c-1.2,0.4-2.4,0.5-3.6,0.5C1220.9,184.9,1219.1,184.5,1217.5,183.7z M1228,176.9
					c0.8-0.7,1.1-1.6,1.1-2.7c0-1.2-0.4-2.1-1.1-2.8c-0.8-0.7-1.6-1-2.7-1c-1,0-1.9,0.3-2.7,1c-0.8,0.7-1.1,1.6-1.1,2.8
					c0,1.1,0.4,2,1.1,2.7c0.8,0.7,1.6,1,2.7,1C1226.3,177.9,1227.2,177.6,1228,176.9z"/>
			</g>
		</g>
		<g>
			<path class="st4" d="M1302.3,153l-18.7,4.3v4.9l3.1,0.7v-1.7l15.6,3.6v20.6h3.1v-20.6l15.6-3.6v19.5h3.1v-49.5l-21.8-5V153z
				 M1305.5,145.6l15.6,3.6v7.5l-15.6-3.6V145.6z"/>
			<polygon class="st4" points="1283.6,180.7 1286.8,180.7 1286.8,173.6 1283.6,174.3 			"/>
			<polygon class="st4" points="1255.6,135.5 1255.6,190.1 1258.7,190.1 1258.7,170.5 1272.7,173.8 1272.7,162.7 1258.7,166 
				1258.7,158.5 1274.3,162.1 1274.3,194.7 1277.4,194.7 1277.4,140.6 			"/>
			<polygon class="st4" points="1279,162.7 1279,162.7 1279,165.8 1279,170.6 1279,173.8 1279,173.8 1293,170.5 1293,190.1 
				1296.1,190.1 1296.1,169.8 1296.1,166.7 			"/>
		</g>
	</g>
</g>
</svg>
