<?xml version="1.0" encoding="utf-8"?>
<!-- Generator: $$$/GeneralStr/196=Adobe Illustrator 27.6.0, SVG Export Plug-In . SVG Version: 6.00 Build 0)  -->
<svg version="1.1" id="Capa_1" xmlns="http://www.w3.org/2000/svg" xmlns:xlink="http://www.w3.org/1999/xlink" x="0px" y="0px"
	 viewBox="0 0 1254.6 406.1" style="enable-background:new 0 0 1254.6 406.1;" xml:space="preserve">
<style type="text/css">
	.st0{fill:#FFFFFF;}
	.st1{fill:#3D3D3D;}
	.st2{fill:#2A94FF;}
	.st3{fill:#FE734C;}
	.st4{fill:#3E3B3D;}
	.st5{fill:#787F55;}
	.st6{fill:#338BFD;}
</style>
<g>
	<g>
		<g>
			<path class="st1" d="M25.5,48H39v20.5H25.6v22h25.1v22.6H0V2.1h50.7v23.3H25.5V48z"/>
			<path class="st1" d="M109.7,113.1h-50l0.2-111h24.7v87.7h25.1V113.1z"/>
			<path class="st1" d="M142,48h13.6v20.5h-13.4v22h25.1v22.6h-50.7V2.1h50.7v23.3H142V48z"/>
			<path class="st1" d="M214.2,30.2c0-1.9-0.7-3.6-2-5.1c-1.3-1.5-3-2.2-4.9-2.2c-1.9,0-3.5,0.7-4.9,2.2c-1.3,1.5-2,3.2-2,5.1v55.3
				c0,1.9,0.7,3.5,2,4.9c1.3,1.3,3,2,4.9,2c1.9,0,3.5-0.7,4.9-2c1.3-1.3,2-3,2-4.9V69.5h18.8v18.2c0,7.8-2.6,14.3-7.8,19.5
				c-5.2,5.2-11.9,7.8-20.2,7.8h-1.1c-9.1,0-16.2-3-21.3-9c-5.2-6-7.8-13.5-7.8-22.4V27.6c0-5,1.3-9.6,3.8-13.8
				c2.6-4.2,6-7.6,10.4-10c4.4-2.5,9.4-3.7,15-3.7h1c9.6,0,16.7,3.1,21.2,9.2s6.9,13.5,6.9,22.2v14.7h-18.9V30.2z"/>
			<path class="st1" d="M280.7,30.2c0-1.9-0.7-3.6-2-5.1c-1.3-1.5-3-2.2-4.9-2.2c-1.9,0-3.5,0.7-4.9,2.2c-1.3,1.5-2,3.2-2,5.1v55.3
				c0,1.9,0.7,3.5,2,4.9c1.3,1.3,3,2,4.9,2c1.9,0,3.5-0.7,4.9-2c1.3-1.3,2-3,2-4.9V69.5h18.8v18.2c0,7.8-2.6,14.3-7.8,19.5
				c-5.2,5.2-11.9,7.8-20.2,7.8h-1.1c-9.1,0-16.2-3-21.3-9c-5.2-6-7.8-13.5-7.8-22.4V27.6c0-5,1.3-9.6,3.8-13.8
				c2.6-4.2,6-7.6,10.4-10C260,1.2,265,0,270.6,0h1c9.6,0,16.6,3.1,21.2,9.2s6.9,13.5,6.9,22.2v14.7h-18.9V30.2z"/>
			<path class="st1" d="M308.9,2.1h26v111h-26V2.1z"/>
			<path class="st1" d="M352.8,10.3c5.3-6.8,13-10.1,23.1-10.1c10,0,17.4,3.3,22.4,10c5,6.7,7.5,15.6,7.5,26.7v41.3
				c0,11.1-2.5,20-7.5,26.7c-5,6.7-12.4,10-22.4,10c-10.1,0-17.8-3.4-23.1-10.1c-5.3-6.8-7.9-15.6-7.9-26.6V36.9
				C344.9,26,347.5,17.1,352.8,10.3z M375.3,92.2c4.1,0,6.1-3.2,6.1-9.6V32.5c0-6.4-2-9.6-6.1-9.6c-4,0-5.9,3.2-5.9,9.6v50.1
				C369.4,89.1,371.3,92.2,375.3,92.2z"/>
			<path class="st1" d="M475.9,113.1h-16.8l-23.2-55.5v55.5h-20.3V2.1h20.9l19.1,42.5V2.1h20.3V113.1z"/>
			<path class="st1" d="M512.7,48h13.6v20.5h-13.4v22H538v22.6h-50.7V2.1H538v23.3h-25.3V48z"/>
			<path class="st1" d="M601.1,63.9c3.3,5.5,5,12.1,5,19.9c0,9.7-2.9,17.3-8.6,22.9c-5.7,5.6-13,8.3-21.6,8.3h-3.1
				c-9.6,0-16.8-3.1-21.8-9.3c-5-6.2-7.5-13.6-7.5-22.3V72.9H560v9c0,3.6,0.9,6.4,2.7,8.5c1.8,2.1,4.4,3.2,7.8,3.2
				c3.1,0,5.6-1,7.8-2.9c2.1-1.9,3.2-4.3,3.2-7.1c0-2.4-0.9-5-2.7-7.8c-1.8-2.7-4.6-5.4-8.4-7.9c-16.1-10.7-24.1-24.6-24.1-41.7
				c0-4.6,1.1-8.9,3.2-12.8c2.1-4,5.2-7.1,9.4-9.6c4.1-2.4,9-3.6,14.6-3.6c8.9,0,15.7,2.5,20.4,7.4c4.7,4.9,7,11.6,7,20v10.9h-17.2
				v-9c0-2.8-0.8-4.9-2.5-6.2c-1.7-1.3-3.6-2-5.7-2c-2,0-3.8,0.7-5.3,2.2c-1.5,1.5-2.2,3.5-2.2,6c0,3.1,1.3,6.1,4,9.2
				c2.7,3.1,6.1,5.9,10.3,8.4C591.5,52.8,597.8,58.4,601.1,63.9z"/>
		</g>
		<g>
			<g>
				<path class="st5" d="M48.3,135.8c11.5,0,20.6,3.7,27.3,11.2c6.7,7.4,10.1,16.6,10.1,27.6c0,10.8-1.2,18.3-3.5,22.7
					c-2.3,4.4-6.4,7.8-12.1,10.1v0.5c5.4,2.3,9.5,5.5,12.2,9.4c2.8,3.9,4.1,8.6,3.9,14c-0.5,22-0.7,35.5-0.5,40.3
					c0.2,5.7,1.5,12.5,4,20.2H56.6c-1.4-1.8-2.6-4.8-3.4-9.1c-0.8-4.3-1.2-8.5-1.2-12.6l0.3-37.6c0-2.5-0.8-4.5-2.3-6
					c-1.5-1.5-3.5-2.3-5.8-2.3h-6.5v67.7H3.4V135.8H48.3z M49.5,193.3c2.1-2.5,3.1-5.7,3.1-9.7v-4.8c0-9.5-3.9-14.2-11.8-14.2h-3.5
					v32.8h3.5C44.5,197.2,47.4,195.8,49.5,193.3z"/>
				<path class="st5" d="M136.4,200.3h19.1v28.8h-18.8V260h35.2v31.7h-71.2V135.8h71.2v32.8h-35.5V200.3z"/>
				<path class="st5" d="M247.2,291.7l-3.5-6.5c-2,2.3-5.2,4.4-9.8,6.3c-4.6,1.9-9.3,2.8-14.1,2.8c-5.4,0-10.9-1.5-16.7-4.4
					c-5.7-3-10.7-8.4-14.9-16.4c-4.2-8-6.3-18.9-6.3-32.7v-60.2c0-10.6,2.2-19.4,6.6-26.6c4.4-7.2,9.9-12.5,16.4-15.9
					c6.5-3.4,13.1-5.1,19.8-5.1h1.9c6.8,0,13,2,18.7,6c5.6,4,10.1,9.2,13.4,15.6c3.3,6.4,5,12.9,5,19.5v19.4h-25v-16.7
					c0-3.2-1.2-6-3.5-8.3c-2.3-2.3-5-3.5-8.1-3.5c-3,0-5.7,1.2-7.9,3.5c-2.2,2.3-3.4,5.1-3.4,8.3v77.7c0,2.3,0.9,4.4,2.7,6.2
					c1.8,1.8,3.9,2.7,6.2,2.7c2.5,0,4.6-0.9,6.3-2.7c1.7-1.8,2.6-3.9,2.6-6.2v-14.5h-8.6v-26.6h40.9v78.2H247.2z"/>
				<path class="st5" d="M280,135.8h36.6v155.9H280V135.8z"/>
				<path class="st5" d="M514.6,291.7H491l-32.5-78v78H430V135.8h29.3l26.9,59.7v-59.7h28.5V291.7z"/>
				<path class="st5" d="M572.7,291.7l-2.2-17.2h-18l-1.9,17.2h-25.5l22.6-155.9h32.5l27.4,155.9H572.7z M561.1,209.5h-0.3
					l-6.5,45.7H567L561.1,209.5z"/>
				<path class="st5" d="M685.9,291.7h-70.2l0.3-155.9h34.7v123.1h35.2V291.7z"/>
				<path class="st5" d="M731.3,200.3h19.1v28.8h-18.8V260h35.2v31.7h-71.2V135.8h71.2v32.8h-35.5V200.3z"/>
				<path class="st5" d="M855.5,222.6c4.7,7.7,7,17,7,28c0,13.6-4,24.3-12.1,32.1c-8.1,7.8-18.2,11.7-30.4,11.7h-4.3
					c-13.4,0-23.7-4.3-30.6-13c-7-8.7-10.5-19.1-10.5-31.3v-14.8h23.1v12.6c0,5,1.3,9,3.8,12c2.5,3,6.2,4.4,11,4.4
					c4.3,0,7.9-1.3,10.9-4c3-2.7,4.4-6,4.4-9.9c0-3.4-1.3-7-3.8-10.9c-2.5-3.9-6.5-7.6-11.8-11.2c-22.6-15.1-33.9-34.6-33.9-58.6
					c0-6.5,1.5-12.5,4.4-18c3-5.6,7.3-10,13.2-13.4c5.8-3.4,12.7-5.1,20.6-5.1c12.5,0,22.1,3.5,28.6,10.3c6.5,6.9,9.8,16.3,9.8,28.1
					v15.3h-24.2v-12.6c0-3.9-1.2-6.9-3.5-8.7c-2.3-1.9-5-2.8-8.1-2.8c-2.9,0-5.3,1-7.4,3.1c-2.1,2.1-3.1,4.9-3.1,8.5
					c0,4.3,1.9,8.6,5.6,12.9c3.8,4.3,8.6,8.2,14.5,11.8C841.9,207,850.8,214.9,855.5,222.6z"/>
				<path class="st5" d="M405.8,149c-7-9.4-17.5-14.1-31.5-14.1c-14.2,0-25,4.8-32.4,14.2c-7.4,9.5-11.2,22-11.2,37.4v58.1
					c0,15.4,3.7,27.9,11.2,37.4c7.4,9.5,18.2,14.2,32.4,14.2c14,0,24.5-4.7,31.5-14.1c7-9.4,10.5-21.9,10.5-37.5v-58.1
					C416.3,170.9,412.8,158.4,405.8,149z M353.9,167.7L353.9,167.7L353.9,167.7L353.9,167.7l0.1,0l0,0l0,0l0,0l0,0L353.9,167.7
					L353.9,167.7L353.9,167.7L353.9,167.7L353.9,167.7z M353.9,168.9L353.9,168.9L353.9,168.9L353.9,168.9L353.9,168.9L353.9,168.9
					L353.9,168.9L353.9,168.9L353.9,168.9L353.9,168.9z M353.8,169L353.8,169L353.8,169L353.8,169L353.8,169L353.8,169L353.8,169z
					 M353.7,169.1L353.7,169.1L353.7,169.1l0.1,0l0,0L353.7,169.1L353.7,169.1L353.7,169.1L353.7,169.1L353.7,169.1L353.7,169.1
					L353.7,169.1L353.7,169.1z M351.4,166.8l0-0.1l0,0l0,0l0,0h0l0,0l0.1,0l0,0l0,0l0,0l0,0l0,0l0,0l0,0l0,0h0l0,0l0.1,0l0,0l0.1,0
					l0.1-0.1l0,0l0,0l0.1,0l0,0l0,0l0,0l0,0l0,0l0,0l-0.1,0.1l0,0.1l0,0l0,0.1l0,0l0,0l0,0l0,0l0,0l0,0v0l0,0l0,0l0,0l0,0l0,0.1
					l0-0.1l0,0l0,0l0.1,0h0l-0.1,0h0l0,0l0,0.1l-0.1,0.1l0,0.1H352l0,0l0,0l-0.1,0.1l0,0l-0.1,0l-0.1,0.1l0,0l0,0l0,0l-0.1,0v0l0,0
					l0,0l0,0l0,0l0,0l0-0.1l0,0l-0.1,0l0,0l-0.1,0l0,0l0,0l0-0.1l0,0L351.4,166.8L351.4,166.8z M350.3,170.4L350.3,170.4
					L350.3,170.4L350.3,170.4L350.3,170.4L350.3,170.4l0.1-0.1l0,0l0,0l0-0.1l0,0l0,0l0.1,0l0,0l0,0l0,0l0-0.1l0,0l0,0l0,0l0,0
					l0-0.1l0-0.1l0,0l0,0l0,0l0-0.1l0,0l0,0l0-0.1l0,0l0,0l0,0l0,0l0,0l0,0l0,0l0,0l0,0l0,0l0,0l0,0l0.1-0.1l0-0.1l0,0l0,0v0l0.1,0
					l0,0l0,0l0-0.1l0.1-0.1l0-0.1l0.1-0.1l0,0l0,0l0,0l0.1,0h0l0,0l0,0l0.1-0.1v0l0.2-0.1l0.1,0l0-0.1h0l0,0.1l0,0l0,0l0,0v0
					l0.1,0.1l0.1,0l0,0l0,0l0,0l0,0l0,0l0,0l0.1,0l0.1-0.1l0,0l0,0l0,0l0.1-0.1l0-0.1l0-0.1l0,0l0,0l0,0l0-0.1l0,0l-0.1,0l0,0l0-0.1
					l0.1,0l0.1,0l0-0.1l0,0v0l0,0l0,0l0,0l0,0l0,0l0,0h0.1l0,0l0,0l0.1,0l0,0l0,0.1l0,0l0.1,0l0,0l0,0l0,0l0,0l0,0.1l0,0.1l0,0l0,0
					l0.1,0l0,0h0l0,0l0,0l0,0l0,0l0,0h0.1l0.1,0l0.1,0l0,0l0,0.1l0,0.1l0,0.1l0,0l0,0l-0.1,0.1l0,0l0,0l-0.1,0.1l0,0.1l0,0h0l0,0
					l0,0l0,0v0l0,0l0,0l0,0l-0.1,0l0,0l0,0l0,0.1l0,0l0,0l0,0l0,0l0,0l0,0.1l0,0.1l0,0h0l0,0l0,0l0,0v0l0,0l0,0l0,0.1l0,0l0,0l0,0
					l0,0l0,0l-0.2,0l0,0l0,0l0,0l0,0l0.1,0l0,0l0,0l0,0h0l0,0l0.1,0l0.1-0.1l0,0l0,0l0,0h0l0,0l0,0l0,0l0,0l0,0l0,0.1l0,0.1l0,0
					l0,0.1l-0.1,0h0l0,0l0,0l0,0l-0.1,0l-0.1,0l0,0l-0.1,0l0,0l0,0l0,0l0,0.1l-0.1,0l0,0l0.1,0l0,0.1l0,0l0,0.1l0,0l0,0.1l0,0l0,0.1
					l0,0l0,0l0,0.1l0,0.1l0,0l0,0l0,0l0,0.1l0,0.1l-0.1,0.1l0,0l-0.1,0.1l0,0.1l0,0.1l0,0l0,0.1l0,0l-0.1,0l0,0l-0.1,0l0,0l0,0l0,0
					l-0.1,0l-0.1,0.1l-0.1,0l-0.1,0l0,0l0,0.1l0,0l0,0.1l-0.1,0l-0.1,0.1l0,0l0,0l-0.1,0l0,0.1l-0.1,0.1l-0.1,0l-0.1,0.1l-0.1,0l0,0
					l0,0l-0.1,0l0,0l0,0h-0.1v0l0,0l0,0.1l-0.2,0l-0.1,0.1l0,0.1l-0.1,0h0l-0.1,0l-0.1,0l0,0l0,0l0,0l0,0l0-0.1l0,0v0l0,0l0,0
					l-0.1-0.1l0-0.1l0,0l0-0.1l0,0l0,0l0,0l0,0l0.1,0l0,0l0-0.1l0,0l0,0l0,0l0,0l0,0l-0.1-0.2l0,0l0,0l0,0l0,0l0,0l0,0l0,0l-0.1,0
					L350.3,170.4L350.3,170.4L350.3,170.4z M350.4,170.8L350.4,170.8L350.4,170.8L350.4,170.8L350.4,170.8L350.4,170.8L350.4,170.8
					L350.4,170.8z M348.5,163.9L348.5,163.9l0.1-0.1l0,0l0,0l0,0l0,0l0,0l0,0l0,0l0,0v0l0,0l0,0l0,0l0,0l0,0l0,0L348.5,163.9
					L348.5,163.9L348.5,163.9L348.5,163.9L348.5,163.9z M344.8,172.8v-0.1l0.1-0.2l0.1-0.2l0,0l0,0l0.1-0.1l0.1-0.3v-0.1l0,0l0-0.1
					l0,0l0,0l0,0l0,0v0l0,0l0,0l0,0l0-0.1l0-0.3l0-0.3l0,0l0,0h0l0-0.1l0-0.1l0,0l0,0l0,0l0,0l0,0l0,0l0,0l0,0l0-0.1h0l0-0.1h0l0,0
					h0l-0.1,0l0,0v0l0-0.1l0,0l0,0.1l0,0l0-0.1l0,0l0.1,0l0,0l-0.2,0l0,0l-0.1,0l-0.1,0l0,0l-0.1-0.1l-0.1-0.1l0-0.1l0-0.1l0-0.1
					l0.1-0.1l0-0.1l0.1-0.2l0-0.1l0.1-0.1l0-0.1l0,0l0-0.1l0,0l0,0l0.1-0.1l0,0l0,0l0,0l0,0l0-0.1l0,0l0-0.1l0.1-0.1l0-0.1l0,0
					l-0.1,0l-0.1-0.1l0-0.1l0-0.1l0-0.1l0-0.1l0-0.1l0-0.1l0,0l0.1-0.1l0-0.1l0,0l0,0l0.1-0.1l0,0l0-0.1l0.1,0l0,0v0l0,0l0,0l0,0
					l0.1-0.1l0,0l0,0l0.1-0.1l0,0l0.1-0.1h0l0,0l0,0l0,0l0-0.1l0-0.1l0,0l0,0v0l0,0l0,0l0-0.1l0,0l0-0.1l0,0l0,0l0,0l0,0l0,0l0,0
					l0,0l0,0l0,0l0,0l0,0l0,0h0l0,0l0-0.2l0,0l0,0l0,0l0,0l0,0l0,0l0,0l0,0l0,0l0.1-0.1l0,0l0,0l0.1-0.1l0.1-0.1l0,0l0,0l0.1,0
					l0.2-0.2l0,0l0.2-0.2l0,0l0.2-0.2l0.1-0.1l0,0l0,0l0.2-0.1l0.1,0l0.1,0.1l0.1,0.1l0.1,0.1l0,0.1l0.1,0l-0.1,0l0,0l0,0.1l0.1,0.2
					l0.2,0.1l0,0l0,0l0,0l0,0l0.1,0l0,0l0.1,0.1l0.1,0.1l0.1,0l0,0h0l0,0.1l0,0l0,0l0,0l0,0l0,0l0,0l0,0l0,0h0l0,0l0,0l0,0h-0.1l0,0
					l0,0l0,0l0,0l0,0h0l0,0l0,0l0,0v0l0,0l0,0h0l0,0l0,0l0,0l0,0l0,0l0,0h0l0,0l0,0l0,0l0,0h0l0,0l0,0l0,0l0,0l-0.1,0l0,0l-0.1,0
					l0,0l0,0l0,0l0,0l-0.1,0.1l0,0l0,0l0,0l-0.1,0.1l0,0l0,0.1l-0.1,0v0l0,0l0.1,0.1l0.1,0.1l0,0l0,0l0,0.1l-0.1,0l-0.1,0l0,0l0,0
					l0,0v0l0,0v0l0,0l-0.1,0l0,0l-0.1-0.1v0l0,0l0,0l0,0l0,0l-0.1,0l-0.1,0l0,0v0h0l0,0h0l0,0l0.1,0h0l0,0h0l0,0l-0.1,0h0l-0.1,0
					l0-0.1l-0.1,0l0,0h0l0,0l0,0l0,0.1l0,0.1l0,0.1l0,0l0.1,0l0,0l0,0l0,0l0,0l0,0l0,0l0,0l0.1,0l0,0l0,0l0,0l0,0l0,0l0-0.1l0,0l0,0
					l0,0l0,0l0,0l0,0l0,0l0,0l0,0l0,0.1l0,0l0,0l0,0l0,0l0,0l0,0l0.1,0l0,0l0,0v0l0,0l0,0l0,0l0,0l0,0l-0.1,0l0,0l0,0l0,0l0,0
					l-0.1,0l0,0l-0.1,0l-0.1,0h-0.1l-0.1,0l-0.1,0l0,0.1l0,0l0,0v0l0,0l0,0l0,0l0.1,0l0,0l0,0v0l0,0l0,0l0,0l0,0l0,0l0,0l0,0l0,0h0
					l0,0l0,0l0,0.1l0,0l0,0l0,0.2l0,0l0,0l0,0l0,0.1l0,0.1l0,0l0,0l0,0.1l0,0.1l0,0.1l0,0l0,0.1l0,0l0,0.1l0.1,0.1l0,0.1l0,0l0,0.1
					l0,0l-0.1,0l-0.2,0.1l-0.1,0.1l0,0l0,0l0,0.1l0,0l0,0l-0.1,0l0,0l0,0v0.1l0,0l0,0l0,0.1l0,0l0,0l0,0v0l0,0h0l0,0.1l0,0l0,0l0,0
					v0l0,0l0,0.1l0,0l0,0l-0.1,0.1l0,0.1l0,0l0,0l0,0l0,0.1v0l0,0l0,0l0,0.1l-0.1,0l-0.1,0.1l-0.1,0l-0.1,0l0,0.1l0,0l0,0.1l0,0.1
					l0,0.1l0,0.1l0,0l0,0l0,0l0,0.1l0,0l0,0.1l0,0.1l0,0.1l0,0l0,0.2l0,0l0,0l0,0l0,0l0,0.1l0,0.1l0,0.1l0,0.1l0,0l0,0.1l0,0
					l-0.1,0.1v0.1l0,0l0,0.1v0l0,0l0,0.1l0,0.1l-0.1,0.1l0,0.1l-0.1,0.1l0,0.1l-0.1,0.1l0,0.1l0,0l-0.1,0.1l-0.1,0.3l-0.2,0.3l0,0.1
					l0,0l0,0.1l-0.1,0.2l-0.1,0.1l-0.1,0l-0.1,0l-0.1-0.1l0,0l0,0l0,0l-0.1-0.1v0l0,0l0-0.1l0,0l0,0l0-0.1l0-0.1l0-0.1l-0.1,0l0-0.1
					l0-0.1l0,0l0,0l0,0l0,0l0,0l0,0l0,0l0,0v0l0,0l0,0l0,0l0-0.1l0,0L344.8,172.8L344.8,172.8L344.8,172.8L344.8,172.8z M348.6,168
					L348.6,168L348.6,168L348.6,168l0.1-0.1v0l0,0l0,0l0,0.1l0,0l0,0L348.6,168L348.6,168L348.6,168L348.6,168z M348.7,167.8
					L348.7,167.8L348.7,167.8L348.7,167.8L348.7,167.8L348.7,167.8L348.7,167.8L348.7,167.8L348.7,167.8L348.7,167.8L348.7,167.8
					l-0.1-0.1l-0.1,0l0,0l0,0l0,0l0,0l0,0L348.7,167.8L348.7,167.8L348.7,167.8z M348.3,166.2L348.3,166.2L348.3,166.2L348.3,166.2
					L348.3,166.2L348.3,166.2L348.3,166.2l-0.1,0v0L348.3,166.2L348.3,166.2L348.3,166.2L348.3,166.2L348.3,166.2L348.3,166.2z
					 M347.7,168.7L347.7,168.7L347.7,168.7L347.7,168.7L347.7,168.7L347.7,168.7L347.7,168.7L347.7,168.7L347.7,168.7z M347.7,168.6
					L347.7,168.6L347.7,168.6L347.7,168.6L347.7,168.6L347.7,168.6L347.7,168.6z M406.2,232.8c-0.2-1.2-1.1-2.4-1.8-3.4
					c-2.3-0.1-2.7,4.5-4.7,0.7c-1.3,1.8,1.6,1.7-2.4,1.7c-2.7,0.6-8.3-2.1-7.4,2.3c-0.1,1.5,0,1.6,1.3,1.5c1,0.3,2.2-0.3,2.5,1.1
					c0.4,0.1,0.1,0.7,0,1c0.7,0.4-0.1,0.6-0.5,0.6c-0.2-0.2-0.7-0.2-1-0.6c-0.6-0.2-0.8,0.7-1.3,0.3c-0.6,0.6-2.2,0.1-2.2,0.9
					c0.2,1.7-0.9,4.3,1.2,5.1c0.4,0.7,1.5,0.6,1.5,1.6c0.1,0.5-0.5,0.7,0.1,1.1c1,1.7,1.1,2.5,0.6,4.7c-0.9,5-1.8,10.1-2.8,15.1
					c-0.1,0.4-0.3-0.5-0.6-0.6c-0.9-0.2-0.7-1.2-1.5-1.6c-4.4,1.1-0.6-2.9,0.5-4.9c1-1.5,1.5-1.9-0.1-2.3c-0.1-0.9-0.9,0.2-0.6-0.7
					c-0.5,0.3-1.3-0.8-1.4-0.2c-0.4,0.1-0.5-0.4-0.6-0.7c-0.6,0-0.9-0.7-1.5-0.7c-0.7-0.5-0.2,0.5-0.6,0.3c-0.4-0.4-0.5,0.3-0.8,0.4
					c-0.4,0.1-0.9,0-1.3,0.3c0.1-0.3-0.2-1.2-0.5-0.4c-0.2-0.4-0.3-0.6-0.8-0.8c-0.7-0.2-1.2-0.3-1.8,0.7c-0.9,0.1-1.6,0.6-2.4,0.8
					c-0.6,0-1.7-1.1-1.9-0.3c-0.2,0.3-0.2-0.1-0.3-0.2c-0.2,0.3-0.3,0-0.6,0.1c-0.5,0.4-0.7,0.1-0.9-0.3c-0.4-0.4-0.9,0.2-1.1-0.5
					c-0.5-0.4,0.2-0.7,0.3-1.1c-0.4-0.4-0.2-1-0.5-1.4c0.1-1-1.1,0-1.5-0.6c-0.9-0.3-0.2-0.8-0.3-1.3c0.1-0.4-0.7-0.4-0.4-0.8
					c-0.3-0.4-0.9-1.3-1.4-0.9c-0.6,0.1-0.5-0.8-1-0.6c-0.2,0,0.1-0.3-0.1-0.3c-0.3,0.4-0.4-0.3-0.5-0.4c-0.6,0.3-1.3-0.2-1.6-0.8
					c0.4-0.1,0.4-0.4,0-0.5c-0.4-0.2,0-0.9-0.4-1.2c-0.5-0.6-1.3-1.3-2-1.5c-0.2,0,0-1.4-0.7-0.6c-1-0.1-1.5-1.9-2.3-0.7
					c-0.9-0.1-1.6-1.1-2.5-1.1c-1,0-1.6-1-2-1.7c-0.2,0.2-1.2-0.5-1.5-0.6c-0.5,0.4-0.8,0.5-0.6,1.2c-0.3,0.1-1,0.4-1.2,0
					c-0.7-0.3-0.8,0.1-1.6,0c-0.7-0.5-1.4-0.6-2.2-0.7c-1.2,0.1-1.1-0.9-1.2-1.7c-1.2,0.2-1-1.6-2.1-0.9c-1.2-0.6-2.8-1-3.8-2.2
					c-0.9-0.3-2-1.1-2.2-2.1c-0.2-0.1-1.5-0.5-0.7-0.8c0.4-0.8,1.1-1.1,1.9-0.8c0.5,0.3,0.5-0.2,0.5-0.6c-0.3,0-0.3,0-0.2-0.6
					c-0.2-0.4-0.3,0-0.4,0.1c-0.1-0.4-0.4-1-0.2-1.4c0.8-1.3,0.6-1.3,1.9-2.4c0.3-0.4,0.8,1.2,0.6,0.2c0.2-1,0.3,1.1,1,0.6
					c0.5-0.7-0.5-0.8,0.8-1c0.3,0.1,0.4,0.3,0.4,0.6c0.3,0.1,1.1,0.1,0.9-0.4c-0.3-0.4-0.5-0.7,0.1-0.9c-0.1-0.1-0.4,0-0.2-0.2
					c0.2,0,0.5,0.3,0.4,0c-0.7-0.2,0.8-0.3,0.2-0.4c-0.4,0.2-0.5-0.2-0.1-0.3c0.1,0.2,0.4,0.1,0.4-0.1c-0.1,0-0.1-0.2,0-0.2
					c0-0.1-0.2-0.1-0.2-0.1c-0.8,0.2,0.4-0.6,0.7-1.2c0.3-0.1,0.4-0.3,0-0.3c0.5-0.6,0.7-1,1.3-0.5c-0.5-0.5-0.1-0.4,0-0.9
					c-0.1-0.2,0.2-0.2,0,0c0.1,0,0.3,0.1,0.3,0c-0.3-0.2,0.1-0.4-0.4-0.3c-0.1-0.2,0.5,0,0.2-0.2c0.2-0.3,0.2-0.1,0.5-0.1
					c-0.2,0,0.1-0.6,0.2-0.4c0.6-0.3-0.4,0,0.3-0.4c-0.6,0.2-0.5-0.3,0-0.1c-0.4-0.2-0.2,0,0-0.3c-0.4-0.2,0.3-0.4,0.6-0.8
					c-0.6-0.2-0.5,0.4-1.3,0.4c-0.4-0.3-0.5-1,0.2-0.8c0.3-0.2-0.3,0.1,0-0.2c0.3-0.3,0.2-0.4-0.1-0.6c-0.2-0.1,0,0.1-0.1,0.2
					c-0.2-0.2-0.1,0.2-0.3,0.1c0,0.8-0.2,0.8-0.7,0.2c0-0.8-0.2-1.2,0.9-1.2c0.6-0.8-1.2,0.5-0.2-1.9c0.1-0.7-0.2-1.8,0.3-0.9
					c-0.2-0.5-0.6-1-0.6-1.7c0.1-1.1-0.1-2.1-0.2-2.7c-0.1-0.1-0.3-0.3-0.5-0.3c-0.1,0.1-0.6,0.1-0.3-0.1c0.3-0.4,0.7-0.7,1.3-0.6
					c0.9-0.9,0.2-1.3-0.1-2.4c-0.1,0.2-1-1.1-0.7-1.6c0.8,0.9,0.4-0.4,0.6-0.6c0.1,0.2,0.1-0.7,0.2-1c-0.3-0.2-0.7-1.5-1-0.6
					c-0.3,0-0.3-1.3-1-1.2c0.6-1.7-1.5-1-1-2.9c0.4-1.1,0.9-0.4,0.5-2c0.5-0.2,0.7,0.7,0.9,1.1c0.9-0.5,1.4-0.9,1.5-1.8
					c0.5-1.1,1.3-0.2,0.7-1.6c-0.2-0.4-0.5-0.9-0.8-1.1c-0.1-0.4,0-1.2-0.6-1.1c-0.3-0.3,0.4-0.6,0.3-0.9c0.6-0.5,0.7,0.2,0.9,0.8
					c0.8,0.1,1.1,1.6,1.8,1.4c0.1,0.1,0,0.4,0.2,0.5c0.3-0.1-0.2,0.2,0,0.3c0.3,0.2,0.6-0.4,0.6,0.2c0.2,0-0.3,0.1,0,0.2
					c0,0-0.3,0-0.1,0.1c-1-0.1-0.3,1.2,0.6,0.7c0-1,0.4-2.8-0.9-3.6c-0.8-0.3,1.2-0.7,1.5-1c0.4-0.5,1.4-1.1,2.1-1.6
					c0.7-0.8,0.7-2.1,1.9-2.4c0.2-0.4,0.7-0.4,1-0.3c-0.4,0-0.2,0.3,0.1,0.1c1.2,0.4,1.8-1.9,0.5-1.6c0.8-0.9,0.5-2.2,1-3.1
					c0.1-0.4-1.2,1.1-0.9,0.3c0.4-0.1,0.5-0.6,0.5-0.7c0.5,0.2,0.6-0.6,0.2-0.7c-0.3,0.2,0.2-0.5,0.3-0.5c-0.2,0.7,0.3,0.1,0-0.3
					c-0.2-0.3,0.1-0.2,0.3-0.4c0-0.3,0.8-0.6,1.1-0.8c0,0.3,0.3,0.2,0.2-0.1c-0.1-0.1-0.6-0.1,0-0.3c3.7-2.6,1.2-1.4,5.2-1.1
					c0.4,0.3-1.6-0.4-0.9,0.8c-0.3-0.5-1,0.3-0.5,0.4c0.1-0.4,0.3-0.1,0.2,0.1c0.5,0.1,0-0.2,0.2-0.5c0.4,0.4,0.6,1.1,1,0
					c0-0.7,0.8-1.3,0.6-2c-0.2-0.8,0.6-1.1,0.9-1c3.2,1.1,5.1,0.2,7.6-2.1c1.5-0.6,3.6-0.8,3.6-2.9c-0.5-0.6,0.6-0.4,1-0.4
					c-0.2,0.2-0.3,0.8,0.2,0.5c0.1-0.2,0.2-0.3,0.4-0.2c0.1-0.3-0.2-0.6-0.5-0.4c0-0.2,0.6-0.6,0.8-0.6c0,0-0.3,0.6,0.1,0.3
					c0.5-0.1,0.2-0.8,0.6-0.2c-0.1-0.1,0.6-0.5,0.2-0.3c-0.3,0.1,0.1-0.2,0-0.1c-0.1,0-0.1,0-0.1,0c-0.1,0-0.1,0.1-0.2,0.1
					c0.1-0.1,0.2-0.1,0.2-0.1c0.7-0.4,3,0.5,3.2,1.7c0.9,0.9-0.9,1-1,1.7c-2.6,1.1-4.2,0.6-5.3,3.8c-0.2,0.7-1.1,0.3-1.6,0.6
					c-0.7,1.3-1.6,2.7-2.4,4c-0.3,1.5-0.2,3.4-1,4.7c-0.7,1.3-3.4,4.2,0,2.4c0.7-0.7,0.4,0.5,0.7,0.9c1.2-0.7,1,0.8,1.4,1.7
					c0.1,1.1,1,2,1.9,2.7c0.1,0.5,0.1,1.1,0.4,1.6c0.1,0.3-0.2,0.4-0.4,0.4c-0.1,0.3-0.3,0.4-0.5,0.6c0.6,1.1-0.9,3.6,1.5,3.2
					c0.6,0.1,0.3,0.8,0.5,1.2c0.3,1,1.7,1.5,2.4,1c0.6-0.2,1-0.1,1.7,0.1c0.7-0.3,1.1,0.3,1.7,0.3c1.2-0.2,2.2-1,3.5-0.7
					c0.6,0.7,1.6,0.9,2.4,0.6c2.1,1.4,3.2,5.5,5.7,5.1c1.2-1.4,3,0.3,4.4-0.5c1.1,0.1,2.7,0.1,3.4-0.6c0.8,0,2.5,0.3,2,1.1
					c1.3,1.1-1.9,1.8-0.7,3.3c-0.2,0.8-1.9,0.9-1.2,2c0,1.3,0.1,2.6-0.3,3.8c0.1,0.5,0.7,0.9,0.4,1.7c0,0.6,0.5,1,0.6,1.5
					c0.1,0.8,0.3,1.7,1.2,1.7c1.9,2.6,0.5,2.4-1.3,4.3c-1.5,1.3-0.4,0.8,0.7,1.1c0.3,0.8,1,1,1.6,1.7c1.7,1.4,0.4,0.5,0.9,2.1
					c0.6,0.2,0.2,0.7,0.3,1.1c0.7,1.2,1.2,2.9,1.3,4.1C406.2,235.8,405.8,234,406.2,232.8z"/>
			</g>
			<path class="st1" d="M890.5,292.5v-32.9l30.3-43.9c4.8-7,8.5-13.5,11.1-19.5c2.6-6.1,3.9-12.4,3.9-19c0-3.6-0.9-6.2-2.7-8
				c-1.8-1.8-4.2-2.7-7.2-2.7c-2.7,0-4.9,1-6.7,2.9c-1.8,2-2.7,4.2-2.7,6.7v22h-26.2v-20.9c0-12,3.1-22,9.2-30.1
				c6.2-8.1,17.1-12.2,32.8-12.2c7.1,0,13.7,1.6,19.8,4.7c6.1,3.1,10.8,7.5,14.3,13.3c3.5,5.7,5.2,12.1,5.2,19.3
				c0,8-1.4,16.2-4.2,24.4c-2.8,8.2-6.2,15.5-10.3,22l-27.3,41.2h41.8v32.9H890.5z"/>
			<path class="st1" d="M1047.9,140.4c6.6,3.9,11.9,9.2,15.8,15.8c3.9,6.6,5.9,13.8,5.9,21.7v74.2c0,7.9-2,15.1-5.9,21.7
				c-3.9,6.6-9.2,11.9-15.8,15.8c-6.6,3.9-13.8,5.9-21.7,5.9c-7.9,0-15.1-2-21.7-5.9c-6.6-3.9-11.9-9.2-15.8-15.8
				c-3.9-6.6-5.9-13.8-5.9-21.7v-74.2c0-7.9,2-15.1,5.9-21.7c3.9-6.6,9.2-11.9,15.8-15.8c6.6-3.9,13.8-5.9,21.7-5.9
				C1034.1,134.5,1041.3,136.5,1047.9,140.4z M1032.1,169.5c-1.6-1.7-3.6-2.5-5.9-2.5c-2.3,0-4.3,0.8-6,2.5c-1.7,1.7-2.5,3.7-2.5,6
				v77.7c0,2.3,0.8,4.3,2.5,6c1.7,1.7,3.7,2.5,6,2.5c2.3,0,4.3-0.8,5.9-2.5c1.6-1.7,2.4-3.7,2.4-6v-77.7
				C1034.5,173.2,1033.7,171.2,1032.1,169.5z"/>
			<path class="st1" d="M1082.5,292.5v-32.9l30.3-43.9c4.8-7,8.5-13.5,11.1-19.5c2.6-6.1,3.9-12.4,3.9-19c0-3.6-0.9-6.2-2.7-8
				c-1.8-1.8-4.2-2.7-7.2-2.7c-2.7,0-4.9,1-6.7,2.9c-1.8,2-2.7,4.2-2.7,6.7v22h-26.2v-20.9c0-12,3.1-22,9.2-30.1
				c6.2-8.1,17.1-12.2,32.8-12.2c7.1,0,13.7,1.6,19.8,4.7c6.1,3.1,10.8,7.5,14.3,13.3c3.5,5.7,5.2,12.1,5.2,19.3
				c0,8-1.4,16.2-4.2,24.4c-2.8,8.2-6.2,15.5-10.3,22l-27.3,41.2h41.8v32.9H1082.5z"/>
			<path class="st1" d="M1200.1,238.4v15.8c0,2.7,0.9,5,2.8,6.8c1.9,1.9,4.2,2.8,6.8,2.8s5-0.9,6.8-2.8c1.9-1.9,2.8-4.2,2.8-6.8
				v-23.6c0-2.7-0.9-4.9-2.8-6.7c-1.9-1.8-4.2-2.7-6.8-2.7h-9.6v-21.7h9.6c2.7,0,5-0.9,6.8-2.7c1.9-1.8,2.8-4,2.8-6.7V176
				c0-2.7-0.9-5-2.8-6.8c-1.9-1.9-4.2-2.8-6.8-2.8s-5,0.9-6.8,2.8c-1.9,1.9-2.8,4.2-2.8,6.8v7.8h-26.2v-10.7
				c0-10.9,3.6-20,10.8-27.3c7.2-7.3,16.6-11,28.3-11h1.6c12.9,0,22.9,3.6,30,10.8c7.1,7.2,10.7,16.4,10.7,27.5v16.3
				c0,4.3-1.3,8.5-4,12.7c-2.7,4.2-6.2,6.9-10.4,8.2c9.6,3.2,14.5,11.2,14.5,23.8v17.4c0,12.5-3.6,22.9-10.8,31.3
				c-7.2,8.4-17.2,12.6-29.9,12.6h-1.6c-11.6,0-21-3.7-28.3-11c-7.2-7.3-10.8-16.4-10.8-27.3v-18.7H1200.1z"/>
		</g>
	</g>
	<g>
		<g>
			<g>
				<path class="st6" d="M1077.6,344.5l12.5,34.8l12.4-34.8h11.2l-18.6,50.3H1085l-18.6-50.3H1077.6z"/>
				<path class="st6" d="M1117.5,393.8c-1.8-1-3.2-2.3-4.3-4.2s-1.6-3.9-1.6-6.3c0-2.4,0.6-4.5,1.7-6.3c1.1-1.8,2.6-3.2,4.5-4.2
					c1.9-1,4-1.5,6.3-1.5c1.4,0,2.5,0.1,3.4,0.4c0.9,0.3,1.9,0.6,3.1,1.1v-0.6c0-1.3-0.5-2.3-1.4-3.1c-1-0.7-2.2-1.1-3.7-1.1
					c-2.1,0-3.8,0.7-5.3,2.2l-5-7.1c1.2-1.4,2.9-2.5,5-3.4c2.1-0.9,4.4-1.3,7-1.3c4.3,0,7.7,1.2,10.2,3.7c2.5,2.4,3.8,5.8,3.8,10.1
					v22.6h-10.5V393c-0.7,0.7-1.7,1.2-3,1.6c-1.3,0.4-2.6,0.6-4,0.6C1121.3,395.2,1119.3,394.8,1117.5,393.8z M1129.2,386.3
					c0.8-0.8,1.3-1.8,1.3-3c0-1.3-0.4-2.3-1.3-3.1c-0.8-0.8-1.8-1.2-3-1.2c-1.1,0-2.1,0.4-3,1.2c-0.8,0.8-1.3,1.8-1.3,3.1
					c0,1.2,0.4,2.3,1.3,3c0.8,0.8,1.8,1.1,3,1.1C1127.3,387.4,1128.3,387,1129.2,386.3z"/>
				<path class="st6" d="M1156.1,392.8c-2.8-1.6-5-3.8-6.6-6.6c-1.6-2.8-2.4-5.9-2.4-9.4c0-3.4,0.8-6.6,2.4-9.4
					c1.6-2.8,3.8-5,6.6-6.6c2.8-1.6,6-2.4,9.6-2.4c3.8,0,7.1,0.9,9.9,2.6c2.8,1.7,5,4.2,6.5,7.4l-9.3,4.7c-0.6-1.6-1.5-2.8-2.7-3.6
					c-1.2-0.8-2.7-1.2-4.5-1.2c-2.3,0-4.3,0.8-5.8,2.3s-2.3,3.6-2.3,6.1c0,2.5,0.8,4.5,2.3,6.1c1.5,1.6,3.4,2.3,5.8,2.3
					c1.7,0,3.2-0.4,4.5-1.2c1.2-0.8,2.2-2,2.7-3.6l9.3,4.7c-1.5,3.2-3.6,5.7-6.5,7.4c-2.8,1.7-6.1,2.6-9.9,2.6
					C1162.1,395.2,1158.9,394.4,1156.1,392.8z"/>
				<path class="st6" d="M1205.6,338.4l4.2,8.5l-18.4,8.6l-4.2-8.5L1205.6,338.4z M1198.9,358.9v35.9h-10.5v-35.9H1198.9z"/>
				<path class="st6" d="M1211.6,393.8c-1.8-1-3.2-2.3-4.3-4.2s-1.6-3.9-1.6-6.3c0-2.4,0.6-4.5,1.7-6.3c1.1-1.8,2.6-3.2,4.5-4.2
					c1.9-1,4-1.5,6.3-1.5c1.4,0,2.5,0.1,3.4,0.4c0.9,0.3,1.9,0.6,3.1,1.1v-0.6c0-1.3-0.5-2.3-1.4-3.1c-1-0.7-2.2-1.1-3.7-1.1
					c-2.1,0-3.8,0.7-5.3,2.2l-5-7.1c1.2-1.4,2.9-2.5,5-3.4c2.1-0.9,4.4-1.3,7-1.3c4.3,0,7.7,1.2,10.2,3.7c2.5,2.4,3.8,5.8,3.8,10.1
					v22.6h-10.5V393c-0.7,0.7-1.7,1.2-3,1.6c-1.3,0.4-2.6,0.6-4,0.6C1215.4,395.2,1213.4,394.8,1211.6,393.8z M1223.3,386.3
					c0.8-0.8,1.3-1.8,1.3-3c0-1.3-0.4-2.3-1.3-3.1c-0.8-0.8-1.8-1.2-3-1.2c-1.1,0-2.1,0.4-3,1.2c-0.8,0.8-1.3,1.8-1.3,3.1
					c0,1.2,0.4,2.3,1.3,3c0.8,0.8,1.8,1.1,3,1.1C1221.4,387.4,1222.4,387,1223.3,386.3z"/>
				<path class="st6" d="M1243.5,393.3c-1.3-1.3-1.9-2.9-1.9-4.7s0.6-3.5,1.9-4.8c1.3-1.3,2.8-2,4.7-2c1.9,0,3.4,0.6,4.7,1.9
					c1.3,1.3,1.9,2.9,1.9,4.8c0,1.9-0.7,3.4-2,4.7c-1.3,1.3-2.9,1.9-4.7,1.9C1246.3,395.2,1244.8,394.6,1243.5,393.3z"/>
			</g>
		</g>
		<g>
			<g>
				<path class="st6" d="M764.8,344.5v40.2h22.6v10.1h-33.3v-50.3H764.8z"/>
				<path class="st6" d="M798.8,393.8c-1.8-1-3.2-2.3-4.3-4.2s-1.6-3.9-1.6-6.3c0-2.4,0.6-4.5,1.7-6.3c1.1-1.8,2.6-3.2,4.5-4.2
					c1.9-1,4-1.5,6.3-1.5c1.4,0,2.5,0.1,3.4,0.4c0.9,0.3,1.9,0.6,3.1,1.1v-0.6c0-1.3-0.5-2.3-1.4-3.1c-1-0.7-2.2-1.1-3.7-1.1
					c-2.1,0-3.8,0.7-5.3,2.2l-5-7.1c1.2-1.4,2.9-2.5,5-3.4c2.1-0.9,4.4-1.3,7-1.3c4.3,0,7.7,1.2,10.2,3.7c2.5,2.4,3.8,5.8,3.8,10.1
					v22.6h-10.5V393c-0.7,0.7-1.7,1.2-3,1.6c-1.3,0.4-2.6,0.6-4,0.6C802.6,395.2,800.6,394.8,798.8,393.8z M810.4,386.3
					c0.8-0.8,1.3-1.8,1.3-3c0-1.3-0.4-2.3-1.3-3.1c-0.8-0.8-1.8-1.2-3-1.2c-1.1,0-2.1,0.4-3,1.2c-0.8,0.8-1.3,1.8-1.3,3.1
					c0,1.2,0.4,2.3,1.3,3c0.8,0.8,1.8,1.1,3,1.1C808.6,387.4,809.6,387,810.4,386.3z"/>
				<path class="st6" d="M841.9,393.4c-2.4-1.2-4.4-2.9-5.8-5c-1.5-2.1-2.4-4.3-2.8-6.8l10.6-2.3c0.2,1.7,0.9,3,1.9,4.1
					c1.1,1.1,2.4,1.6,4.2,1.6c1.8,0,3.2-0.6,4.2-1.7c1-1.1,1.5-2.6,1.5-4.5c0-1.4-0.3-2.5-0.9-3.3c-0.6-0.8-1.4-1.5-2.3-1.9
					c-1-0.5-2.3-0.9-3.9-1.5c-0.3-0.1-0.6-0.3-0.9-0.3c-0.3-0.1-0.6-0.2-0.8-0.3c-3.4-1.2-6.2-2.9-8.3-5c-2.1-2.1-3.1-4.8-3.1-8.3
					c0-2.7,0.6-5.2,1.9-7.3c1.2-2.1,3-3.8,5.1-5c2.2-1.2,4.7-1.8,7.4-1.8c3,0,5.7,0.7,7.9,2c2.3,1.3,4,3.1,5.2,5.4l-8.5,6
					c-0.4-1-1-1.8-1.8-2.4c-0.7-0.6-1.6-0.9-2.7-0.9c-1.1,0-2.1,0.3-2.8,1c-0.7,0.7-1,1.5-1,2.6c0,1.4,0.5,2.4,1.5,3.1
					c1,0.7,2.8,1.4,5.3,2.2c1.1,0.4,1.8,0.6,2.1,0.7c3.6,1.3,6.4,3,8.4,5.2c2,2.2,3.1,5.3,3.1,9.3c0,3.3-0.7,6.2-2.2,8.7
					c-1.5,2.6-3.5,4.6-6,6c-2.5,1.4-5.4,2.2-8.5,2.2C847.1,395.2,844.3,394.6,841.9,393.4z"/>
				<path class="st6" d="M873.8,353.6c-1.3-1.3-1.9-2.9-1.9-4.7s0.6-3.5,1.9-4.8c1.3-1.3,2.8-2,4.7-2c1.9,0,3.4,0.6,4.7,1.9
					c1.3,1.3,1.9,2.9,1.9,4.8c0,1.9-0.7,3.4-2,4.7c-1.3,1.3-2.9,1.9-4.7,1.9C876.7,355.5,875.1,354.9,873.8,353.6z M883.8,358.9
					v35.9h-10.5v-35.9H883.8z"/>
				<path class="st6" d="M902.4,343.5v51.3h-10.5v-50.1L902.4,343.5z"/>
				<path class="st6" d="M920.9,343.5v51.3h-10.5v-50.1L920.9,343.5z"/>
				<path class="st6" d="M933.6,393.8c-1.8-1-3.2-2.3-4.3-4.2s-1.6-3.9-1.6-6.3c0-2.4,0.6-4.5,1.7-6.3c1.1-1.8,2.6-3.2,4.5-4.2
					c1.9-1,4-1.5,6.3-1.5c1.4,0,2.5,0.1,3.4,0.4c0.9,0.3,1.9,0.6,3.1,1.1v-0.6c0-1.3-0.5-2.3-1.4-3.1c-1-0.7-2.2-1.1-3.7-1.1
					c-2.1,0-3.8,0.7-5.3,2.2l-5-7.1c1.2-1.4,2.9-2.5,5-3.4c2.1-0.9,4.4-1.3,7-1.3c4.3,0,7.7,1.2,10.2,3.7c2.5,2.4,3.8,5.8,3.8,10.1
					v22.6h-10.5V393c-0.7,0.7-1.7,1.2-3,1.6c-1.3,0.4-2.6,0.6-4,0.6C937.3,395.2,935.4,394.8,933.6,393.8z M945.2,386.3
					c0.8-0.8,1.3-1.8,1.3-3c0-1.3-0.4-2.3-1.3-3.1c-0.8-0.8-1.8-1.2-3-1.2c-1.1,0-2.1,0.4-3,1.2c-0.8,0.8-1.3,1.8-1.3,3.1
					c0,1.2,0.4,2.3,1.3,3c0.8,0.8,1.8,1.1,3,1.1C943.4,387.4,944.4,387,945.2,386.3z"/>
			</g>
		</g>
		<g>
			<path class="st4" d="M1028.1,359.7l-20.8,4.8v5.4l3.5,0.8v-1.9l17.4,4v23h3.5v-23l17.4-4v21.8h3.5v-55.2l-24.3-5.6V359.7z
				 M1031.5,351.4l17.4,4v8.3l-17.4-4V351.4z"/>
			<polygon class="st4" points="1007.2,390.5 1010.7,390.5 1010.7,382.6 1007.2,383.4 			"/>
			<polygon class="st4" points="976,340.1 976,400.9 979.5,400.9 979.5,379.2 995.1,382.8 995.1,370.5 979.5,374.1 979.5,365.8 
				996.8,369.7 996.8,406.1 1000.3,406.1 1000.3,345.8 			"/>
			<polygon class="st4" points="1002,370.5 1002,370.5 1002,374 1002,379.3 1002,382.8 1002,382.8 1017.7,379.2 1017.7,400.9 
				1021.1,400.9 1021.1,378.4 1021.1,374.9 			"/>
		</g>
	</g>
</g>
</svg>
