<?xml version="1.0" encoding="utf-8"?>
<!-- Generator: $$$/GeneralStr/196=Adobe Illustrator 27.6.0, SVG Export Plug-In . SVG Version: 6.00 Build 0)  -->
<svg version="1.1" xmlns="http://www.w3.org/2000/svg" xmlns:xlink="http://www.w3.org/1999/xlink" x="0px" y="0px"
	 viewBox="0 0 1352.1 270" style="enable-background:new 0 0 1352.1 270;" xml:space="preserve">
<style type="text/css">
	.st0{fill:#F2F2F2;}
	.st1{fill:#3D3B3D;}
	.st2{fill:#3397FF;}
	.st3{fill:#3E3B3D;}
	.st4{fill:#FE734C;}
	.st5{fill:#338BFD;}
	.st6{fill:#4A4595;}
	.st7{fill:#E84242;}
	.st8{fill:#9F9B91;}
	.st9{fill:#D38733;}
	.st10{fill:#787E57;}
	.st11{fill:#A8CC14;}
	.st12{fill:#D58826;}
	.st13{fill:#502850;}
	.st14{fill:#E4DFD1;}
	.st15{fill:#3D3D3D;}
	.st16{fill:#DE2330;}
	.st17{fill:#F27344;}
	.st18{fill:none;stroke:#9F9B91;stroke-miterlimit:10;}
	.st19{fill:none;stroke:#9F9B91;stroke-width:1.0055;stroke-miterlimit:10;}
</style>
<g id="Layer_1">
	<g>
		<g id="Grupo_9_18_" transform="translate(0 3.493)">
			<g id="Grupo_8_18_">
				<path id="Trazado_27_18_" class="st4" d="M23,207.3c-6.2-3.1-11.6-7.7-15.6-13.4C3.6,188.5,1,182.3,0,175.8l28.4-6.1
					c0.5,4.1,2.3,8,5.2,11c3,2.9,7,4.4,11.1,4.2c4.2,0.2,8.4-1.5,11.2-4.6c2.8-3.3,4.3-7.6,4.1-11.9c0.2-3.2-0.7-6.3-2.4-8.9
					c-1.6-2.2-3.8-4-6.2-5.2c-3.4-1.5-6.8-2.8-10.4-3.9c-0.7-0.4-1.5-0.7-2.3-0.9c-0.7-0.2-1.4-0.4-2.1-0.7
					c-8.3-2.8-15.9-7.3-22.2-13.3c-5.8-6-8.8-14-8.4-22.3c-0.1-6.8,1.6-13.6,5-19.5c3.3-5.6,8-10.3,13.7-13.4
					c6.1-3.3,13-4.9,19.9-4.8c7.4-0.2,14.7,1.7,21.1,5.3c5.9,3.4,10.8,8.5,14,14.5l-22.9,15.9c-1-2.5-2.6-4.7-4.7-6.3
					c-2.1-1.6-4.6-2.4-7.2-2.3c-2.7-0.1-5.4,0.8-7.4,2.7c-3.9,4.1-3.7,10.5,0.4,14.4c0.3,0.3,0.6,0.6,1,0.8c4.5,2.5,9.2,4.5,14.1,6
					c3.1,1,4.9,1.7,5.6,1.9c8.5,2.8,16.3,7.6,22.6,14c5.8,6.9,8.7,15.8,8.2,24.8c0.1,8.2-1.9,16.2-5.9,23.3
					c-3.8,6.7-9.3,12.3-16.1,16c-6.9,3.9-14.7,5.9-22.7,5.8C37.4,212.4,29.8,210.7,23,207.3z"/>
				<path id="Trazado_28_18_" class="st4" d="M116.4,201.8c-7.4-7.8-11.3-18.3-10.7-29.1v-57.6h28.1v50.5c0,13.3,5.4,20,16.3,20
					c5.1,0.3,10-1.7,13.4-5.5c3.3-4.1,5-9.3,4.7-14.5v-50.5h28.1v96.1h-28.1v-7.1c-2.9,2.7-6.3,4.8-10.1,6.1
					c-4.5,1.5-9.2,2.3-13.9,2.2C133.9,212.7,123.8,208.9,116.4,201.8z M183.2,60.3l11.3,22.9l-49.2,23.1l-11.2-22.9L183.2,60.3z"/>
				<path id="Trazado_29_18_" class="st4" d="M245.9,115.1v8.3c3.2-2.9,7-5.2,11.2-6.7c4.8-1.8,10-2.7,15.2-2.7
					c8.7-0.1,17.2,2.1,24.8,6.3c7.3,4.1,13.4,10.2,17.5,17.5c8.5,15.8,8.5,34.9,0,50.7c-4.1,7.3-10.2,13.4-17.5,17.5
					c-7.6,4.3-16.1,6.4-24.8,6.3c-5.2,0.1-10.5-0.8-15.4-2.7c-4.1-1.5-7.8-3.7-11-6.7v56.3l-28.1,2.9v-147H245.9z M286.1,180.1
					c9.4-8.9,9.8-23.7,0.9-33.1c-4.5-4.7-10.8-7.4-17.3-7.3c-6-0.2-11.9,2.1-16.1,6.4c-8.5,9.8-8.5,24.2,0,34
					c4.3,4.3,10.1,6.6,16.1,6.4C275.8,186.7,281.7,184.4,286.1,180.1L286.1,180.1z"/>
				<path id="Trazado_30_18_" class="st4" d="M358.3,205.9c-7.5-4.1-13.7-10.2-18-17.7c-4.3-7.6-6.5-16.2-6.4-24.9
					c-0.1-8.8,2.1-17.4,6.3-25.1c4.1-7.4,10.2-13.5,17.6-17.8c7.6-4.4,16.3-6.6,25.1-6.5c9-0.2,17.8,2.2,25.6,6.8
					c7.2,4.3,13.2,10.5,17.2,18c4,7.2,6.1,15.2,6.1,23.4c0,2-0.1,4.6-0.4,7.7h-68.6c0.6,5,3,9.6,6.7,13c4.1,3.6,9.4,5.5,14.8,5.3
					c4.2,0.1,8.4-1,12.1-3c3.7-2.1,6.8-5,9-8.5l19.8,16.1c-4.3,6.1-10.1,11.1-16.8,14.4C392.4,214.4,373.9,214,358.3,205.9
					L358.3,205.9z M395,140.9c-3.5-2.6-7.7-4-12.1-3.9c-4.4-0.1-8.7,1.3-12.2,3.8c-3.5,2.6-6,6.3-7,10.6h38.2
					C400.9,147.2,398.4,143.5,395,140.9L395,140.9z"/>
				<path id="Trazado_31_18_" class="st4" d="M477.1,115.1v12.7c1.8-4.1,4.7-7.6,8.5-10c6.8-3.9,14.9-4.9,22.5-2.7v26.7
					c-2.8-1.1-5.8-1.6-8.8-1.5c-6-0.2-11.8,2.1-16,6.3c-4.3,4.8-6.5,11.1-6.2,17.5v47.1H449v-96.1H477.1z"/>
			</g>
		</g>
		<g id="Grupo_11_2_" transform="translate(194.415 7.413)">
			<g id="Grupo_10_2_">
				<path id="Trazado_32_2_" class="st15" d="M671,72.7l47.9,134.5h-12.7l-9.8-28.2h-58.4l-9.8,28.2h-12.7l47.9-134.5H671z
					 M667.2,93.9l-25.8,74.7h51.5L667.2,93.9z"/>
				<path id="Trazado_33_2_" class="st15" d="M746.2,111.2v12.3c2.5-4.1,6.1-7.4,10.3-9.7c4.7-2.6,9.9-3.9,15.3-3.7
					c5.5-0.2,10.9,1.2,15.6,3.9c4.3,2.8,7.8,6.7,10.2,11.2c2.7-4.6,6.6-8.4,11.3-11c5.1-2.8,10.9-4.3,16.7-4.2
					c8.2-0.3,16.1,2.8,21.8,8.6c5.8,6.4,8.8,14.8,8.4,23.4v65.1h-11.1v-64c0.3-6-1.7-11.8-5.6-16.3c-3.9-4.2-9.5-6.4-15.2-6.1
					c-6.1-0.2-11.9,2.1-16.3,6.2c-4.4,4.2-6.8,10.1-6.5,16.2v64h-11.2v-64c0.3-6-1.7-11.8-5.7-16.3c-4-4.2-9.5-6.4-15.3-6.1
					c-6-0.2-11.9,2.1-16.2,6.2c-4.3,4.3-6.7,10.2-6.4,16.2v64H735v-96.1H746.2z"/>
				<path id="Trazado_34_2_" class="st15" d="M892.6,78.5v16.3h-15V78.5H892.6z M890.7,111.2v96.1h-11.1v-96.1H890.7z"/>
				<path id="Trazado_35_2_" class="st15" d="M938.2,252.3c-6.5-2.7-12-7.2-16.1-13c-4.4-6.7-6.6-14.5-6.2-22.5h11.9
					c-0.4,8.3,3,16.3,9.3,21.7c13.7,10.5,32.9,9.9,45.8-1.4c6.3-6,9.4-15,9.4-27v-19.2c-3.5,5-8.1,9.2-13.4,12.3
					c-6.3,3.6-13.4,5.4-20.7,5.2c-8.4,0.1-16.7-2-24-6.2c-7-4.2-12.8-10.2-16.5-17.5c-7.9-16-7.9-34.9,0-50.9
					c3.8-7.3,9.5-13.3,16.5-17.5c7.3-4.2,15.6-6.4,24-6.2c7.2-0.2,14.4,1.6,20.7,5.2c5.3,3.1,9.9,7.3,13.4,12.3v-16.3h11.1V211
					c0.4,9.1-1.8,18.1-6.3,25.9c-3.9,6.4-9.5,11.6-16.3,14.8c-6.8,3.1-14.2,4.7-21.7,4.6C951.9,256.4,944.8,255,938.2,252.3z
					 M976,192.9c5.3-3.4,9.7-8.2,12.5-13.9c6-12.5,6-27.1,0-39.6c-2.8-5.7-7.1-10.5-12.5-13.9c-5.3-3.4-11.5-5.2-17.8-5.1
					c-6.5-0.1-12.9,1.6-18.5,5c-5.3,3.4-9.5,8.2-12.1,13.8c-5.6,12.7-5.6,27.2,0,40c2.6,5.7,6.8,10.5,12.1,13.8
					c5.5,3.4,11.9,5.1,18.5,5C964.5,198.1,970.7,196.3,976,192.9L976,192.9z"/>
				<path id="Trazado_36_2_" class="st15" d="M1048.3,201.9c-7.2-4.2-13.2-10.3-17.3-17.7c-8.5-15.6-8.5-34.5,0-50.1
					c4.1-7.3,10.1-13.4,17.3-17.7c15.1-8.6,33.7-8.6,48.8,0c7.2,4.2,13.2,10.3,17.3,17.7c8.5,15.6,8.5,34.5,0,50.1
					c-4.1,7.3-10.1,13.4-17.3,17.7C1082,210.5,1063.5,210.5,1048.3,201.9z M1091.5,193c5.6-3.3,10.1-8.1,13.1-13.8
					c6.3-12.6,6.3-27.4,0-40c-3-5.7-7.5-10.5-13.1-13.8c-11.6-6.7-25.9-6.7-37.5,0c-5.6,3.3-10.1,8.1-13.1,13.8
					c-6.3,12.6-6.3,27.4,0,40c3,5.7,7.5,10.5,13.1,13.8C1065.6,199.7,1079.9,199.7,1091.5,193z"/>
				<path id="Trazado_38_2_" class="st15" d="M1142,205.6c-3.6-3.7-3.6-9.6,0-13.3c3.5-3.6,9.2-3.7,12.8-0.3
					c0.1,0.1,0.2,0.2,0.3,0.3c3.6,3.7,3.6,9.6,0,13.3c-3.5,3.6-9.2,3.7-12.8,0.3C1142.1,205.8,1142.1,205.7,1142,205.6z"/>
			</g>
		</g>
		<g id="Grupo_12_2_" transform="translate(136.878)">
			<path id="Trazado_39_2_" class="st1" d="M506,219.5L506,219.5l-6.3-2.2L506,219.5z"/>
			<path id="Trazado_40_2_" class="st1" d="M506,49.3L506,49.3l-24.5,8.5l-9.1,6.2l9.1-6.2L506,49.3z"/>
			<path id="Trazado_41_2_" class="st1" d="M603.4,147.1L603.4,147.1l-2.1,6.3L603.4,147.1z"/>
			<path id="Trazado_42_2_" class="st1" d="M561.9,206.5l6.7-4.6l5.4-3.7l-5.4,3.7L561.9,206.5z"/>
			<path id="Trazado_43_2_" class="st1" d="M461.8,197.6l19.6,13.4l18.2,6.3l6.3,2.2l-24.5-8.5L461.8,197.6z"/>
			<path id="Trazado_44_2_" class="st1" d="M559.7,217.4l-0.9,0.6l-1,0.3l-18.2,6.3l-6.3,2.2l-1.2,0.4h-27.4l-1.2-0.4l-24.5-8.5
				l-1-0.3l-0.9-0.6L461.8,207v63l56.5-11.8l56.5,11.8v-63l-1.9,1.3L559.7,217.4z"/>
			<path id="Trazado_45_2_" class="st1" d="M555.3,211l6.7-4.6l6.7-4.6L555.3,211z"/>
			<path id="Trazado_46_2_" class="st1" d="M545.8,121.5l-30.4-7V129l30.4,7V121.5z"/>
			<path id="Trazado_47_2_" class="st1" d="M577.7,73.1l-22.5-15.4l-24.5-8.5H506l-24.5,8.5l-9.1,6.2L459,73.1l-7.2,9.9l-9.9,13.7
				l-8.5,25v25.4l8.5,25l17.2,23.6l2.8,1.9l19.6,13.4l24.5,8.5h24.7l6.3-2.2l18.2-6.3l13.3-9.1l5.4-3.7l3.7-2.5l17.2-23.6l6.3-18.6
				l2.1-6.3v-25.4l-8.5-25L577.7,73.1z M551.8,183h-6.1v-38l-30.4,7v40.2h-6.1v-40.2l-30.4-7V183h-6.1v-45.6l36.4-8.4V76.7l42.5,9.8
				L551.8,183z"/>
		</g>
		<path class="st1" d="M218.8,58.1V1.2h36.7v8.9h-27.2v14h22.5v8.9h-22.5v16.1h27.2v8.9H218.8z"/>
		<path class="st1" d="M265.8,58.1V0h9.5v58.1H265.8z"/>
		<path class="st1" d="M288,8.9V0.2h9.5v8.7H288z M288,58.1V15.4h9.5v42.7H288z"/>
		<path class="st1" d="M303,77v-8.9h2c2.3,0,4-0.5,4.9-1.6c1-1.1,1.5-2.7,1.5-4.8V15.4h9.5V66c0,3.4-1,6.2-3,8.1
			c-2,2-4.8,2.9-8.4,2.9H303z M311.5,8.9V0.2h9.5v8.7H311.5z"/>
		<path class="st1" d="M344.1,59.3c-3.1,0-5.7-0.6-7.8-1.8c-2.1-1.2-3.7-2.7-4.8-4.7c-1.1-1.9-1.6-4.1-1.6-6.4c0-2.1,0.3-3.9,1-5.6
			c0.7-1.6,1.7-3.1,3.2-4.3c1.4-1.2,3.3-2.2,5.5-2.9c1.7-0.6,3.7-1.1,6-1.5c2.3-0.4,4.8-0.9,7.5-1.2c2.7-0.4,5.5-0.8,8.5-1.2
			l-3.4,1.9c0-2.9-0.6-5.1-2-6.5c-1.3-1.4-3.6-2.1-6.8-2.1c-1.9,0-3.8,0.4-5.6,1.3c-1.8,0.9-3,2.4-3.8,4.6l-8.7-2.7
			c1.1-3.6,3.1-6.5,6-8.7c3-2.2,7-3.3,12-3.3c3.8,0,7.1,0.6,10,1.9c2.9,1.2,5,3.3,6.4,6.1c0.8,1.5,1.2,3,1.4,4.6
			c0.2,1.6,0.2,3.3,0.2,5.1v26.2h-8.3v-9.2l1.4,1.5c-1.9,3.1-4.2,5.3-6.7,6.8C351.1,58.5,347.9,59.3,344.1,59.3z M346,51.7
			c2.2,0,4-0.4,5.5-1.1c1.5-0.8,2.7-1.7,3.7-2.8c0.9-1.1,1.5-2.1,1.8-3.1c0.5-1.2,0.8-2.6,0.8-4.2c0.1-1.6,0.1-2.8,0.1-3.8l2.9,0.9
			c-2.9,0.4-5.3,0.8-7.4,1.2c-2.1,0.3-3.8,0.7-5.3,1c-1.5,0.3-2.8,0.6-3.9,1c-1.1,0.4-2,0.9-2.8,1.4c-0.8,0.5-1.4,1.1-1.8,1.8
			c-0.4,0.7-0.6,1.5-0.6,2.4c0,1.1,0.3,2,0.8,2.8c0.5,0.8,1.3,1.4,2.3,1.9C343.2,51.4,344.5,51.7,346,51.7z"/>
		<path class="st1" d="M425.7,59.3c-5.3,0-9.5-1.2-12.8-3.6c-3.3-2.4-5.3-5.7-6-10l9.7-1.5c0.5,2.1,1.6,3.8,3.3,5
			c1.7,1.2,3.9,1.8,6.5,1.8c2.3,0,4.1-0.5,5.3-1.4c1.3-0.9,1.9-2.2,1.9-3.7c0-1-0.2-1.8-0.7-2.4c-0.5-0.6-1.5-1.2-3-1.7
			c-1.6-0.6-3.9-1.3-7.1-2.1c-3.6-0.9-6.4-2-8.5-3.1c-2.1-1.1-3.6-2.4-4.5-3.9c-0.9-1.5-1.4-3.3-1.4-5.5c0-2.7,0.7-5,2.1-7
			c1.4-2,3.3-3.5,5.8-4.6c2.5-1.1,5.5-1.6,8.8-1.6c3.3,0,6.3,0.5,8.8,1.5c2.6,1,4.6,2.5,6.2,4.4c1.6,1.9,2.6,4.1,2.9,6.7l-9.7,1.7
			c-0.2-1.8-1.1-3.3-2.5-4.3c-1.4-1.1-3.3-1.6-5.6-1.8c-2.2-0.1-4,0.2-5.4,1c-1.4,0.8-2.1,1.9-2.1,3.4c0,0.8,0.3,1.5,0.8,2.1
			c0.6,0.6,1.7,1.2,3.3,1.7c1.7,0.6,4.2,1.3,7.5,2.1c3.4,0.9,6.1,1.9,8.2,3c2,1.1,3.5,2.5,4.4,4c0.9,1.6,1.4,3.4,1.4,5.6
			c0,4.3-1.6,7.7-4.7,10.1C435.5,58,431.2,59.3,425.7,59.3z"/>
		<path class="st1" d="M471.4,59.3c-4.3,0-8.1-0.9-11.4-2.8c-3.3-1.9-5.8-4.5-7.6-7.8c-1.8-3.3-2.7-7.1-2.7-11.5
			c0-4.7,0.9-8.7,2.7-12.1c1.8-3.4,4.3-6.1,7.5-8c3.2-1.9,6.9-2.8,11.1-2.8c4.4,0,8.2,1,11.3,3.1s5.4,5,6.9,8.7
			c1.5,3.8,2.1,8.2,1.7,13.3h-9.4v-3.5c0-4.6-0.8-8-2.4-10.2c-1.6-2.1-4.1-3.2-7.6-3.2c-3.9,0-6.8,1.2-8.7,3.6s-2.8,5.9-2.8,10.6
			c0,4.3,0.9,7.7,2.8,10c1.9,2.4,4.7,3.6,8.3,3.6c2.3,0,4.4-0.5,6.1-1.6c1.7-1,3-2.5,3.9-4.5l9.4,2.8c-1.6,3.8-4.2,6.8-7.6,9
			C479.3,58.2,475.5,59.3,471.4,59.3z M456.7,39.4v-7.2h29.3v7.2H456.7z"/>
		<path class="st1" d="M499.6,58.1V15.4h8.4v10.4l-1-1.3c0.5-1.4,1.2-2.7,2.1-3.9c0.9-1.2,1.9-2.1,3.2-2.9c1.1-0.7,2.2-1.3,3.5-1.7
			c1.3-0.4,2.6-0.7,3.9-0.7c1.3-0.1,2.6,0,3.9,0.2v8.9c-1.3-0.4-2.7-0.5-4.4-0.4c-1.6,0.1-3.1,0.6-4.4,1.4c-1.3,0.7-2.4,1.6-3.2,2.7
			c-0.8,1.1-1.4,2.4-1.8,3.8c-0.4,1.4-0.6,2.9-0.6,4.6v21.7H499.6z"/>
	</g>
</g>
<g id="Layer_2">
</g>
</svg>
