<svg  xmlns="http://www.w3.org/2000/svg" width="88.043" height="20.753"><g  fill="#3d3b3d"><path d="M30.652 17.654h-.013c-.052 0-.1.013-.17.013-.289 0-.512-.157-.512-.786v-1.782c0-1.795.012-3.917.025-5.018v-.053a.953.953 0 0 0-1.048-1.087c-.118 0-.3.013-.433.013a.389.389 0 0 0-.406.394.336.336 0 0 0 .366.34h.026a1.617 1.617 0 0 1 .21-.013c.524 0 .524.223.524 1.114 0 .76-.013 1.69-.013 2.358 0 .17-.013.236-.039.236s-.066-.066-.131-.157a2.634 2.634 0 0 0-2.07-.943 2.933 2.933 0 0 0-2.973 3.106 2.918 2.918 0 0 0 2.975 3.13 2.727 2.727 0 0 0 2.187-1.1c.026-.026.039-.04.053-.04.039 0 .052.052.066.131a1.073 1.073 0 0 0 1.192.93c.17 0 .524-.039.524-.406a.348.348 0 0 0-.34-.38Zm-3.656.145a2.185 2.185 0 0 1-2.228-2.41 2.183 2.183 0 0 1 2.227-2.425 2.236 2.236 0 0 1 2.214 2.423 2.239 2.239 0 0 1-2.213 2.412Z"/><path d="M37.439 17.705c-.524-.183-.616-.5-.616-1.455 0-.5.026-1.179.065-1.611a3.455 3.455 0 0 0 .013-.366 1.793 1.793 0 0 0-2.045-2c-1.126 0-2.227.564-2.227 1.061a.355.355 0 0 0 .367.354.366.366 0 0 0 .275-.131 2.065 2.065 0 0 1 1.533-.629c1.061 0 1.362.563 1.362 1.284 0 .066-.013.144-.013.21 0 .091-.052.131-.21.157a21.01 21.01 0 0 0-2.423.537 1.751 1.751 0 0 0-1.4 1.625 1.951 1.951 0 0 0 2.123 1.808 2.422 2.422 0 0 0 1.986-1.015.069.069 0 0 1 .052-.039c.026 0 .039.026.053.066a1.114 1.114 0 0 0 .97.838.354.354 0 0 0 .354-.366.333.333 0 0 0-.219-.328Zm-1.3-2.148c0 2.017-1.244 2.292-1.912 2.293a1.252 1.252 0 0 1-1.4-1.1c0-.917 1.088-1.179 3.144-1.507h.04c.091 0 .13.039.13.145Z"/><path d="M41.919 17.795h-.053a3.6 3.6 0 0 1-.366.026c-1.022 0-1.048-.694-1.048-1.716 0-.97.039-2.319.039-2.817 0-.157 0-.183.21-.183h1.153a.341.341 0 0 0 .367-.354.337.337 0 0 0-.367-.34h-1.167c-.17 0-.2 0-.2-.144 0 0 .026-1.048.026-1.428a.371.371 0 0 0-.38-.406.371.371 0 0 0-.38.38v.327c0 .458-.013 1.088-.013 1.14 0 .118-.025.131-.143.131h-.76a.338.338 0 0 0-.367.341.34.34 0 0 0 .367.354h.773c.092 0 .131.013.131.144v.21c0 .642-.025 2.24-.025 3.078 0 .577 0 2 1.678 2 .524 0 .838-.067.838-.407a.325.325 0 0 0-.313-.336Z"/><path d="M48.809 17.702c-.524-.183-.616-.5-.616-1.454 0-.5.026-1.179.066-1.611a3.615 3.615 0 0 0 .013-.367 1.793 1.793 0 0 0-2.045-2c-1.126 0-2.227.564-2.227 1.062a.355.355 0 0 0 .367.354.363.363 0 0 0 .275-.131 2.067 2.067 0 0 1 1.531-.634c1.061 0 1.362.564 1.362 1.284 0 .066-.012.145-.012.21 0 .091-.053.131-.21.157a20.924 20.924 0 0 0-2.424.537 1.75 1.75 0 0 0-1.4 1.624 1.951 1.951 0 0 0 2.122 1.808 2.421 2.421 0 0 0 1.991-1.01.071.071 0 0 1 .053-.039c.026 0 .039.026.052.066a1.114 1.114 0 0 0 .97.838.354.354 0 0 0 .354-.367.333.333 0 0 0-.222-.327Zm-1.3-2.148c0 2.018-1.244 2.293-1.913 2.293a1.252 1.252 0 0 1-1.4-1.1c0-.917 1.088-1.179 3.144-1.508h.04c.091 0 .131.04.131.145Z"/><path d="M53.236 15.238c-.406-.21-1.035-.471-1.4-.642a1.008 1.008 0 0 1-.642-.864c0-.433.38-.839 1.061-.839.078 0 1.244 0 1.244 1.048a.336.336 0 0 0 .367.341.323.323 0 0 0 .328-.314v-.026c-.013-.3-.013-.5-.013-.681s0-.38.013-.655v-.013a.306.306 0 0 0-.328-.314.3.3 0 0 0-.3.21c-.013.039 0 .157-.066.157a.1.1 0 0 1-.079-.026 2.107 2.107 0 0 0-1.153-.354 1.6 1.6 0 0 0-1.782 1.507 1.584 1.584 0 0 0 1.062 1.455c1.52.629 2.1.942 2.1 1.637 0 .629-.643 1.009-1.31 1.009-.747 0-1.4-.432-1.4-.864 0-.092.026-.157.026-.249a.336.336 0 0 0-.354-.354.344.344 0 0 0-.366.341v.026c.013.314.026.51.026.707s-.013.393-.026.681v.026a.316.316 0 0 0 .341.314c.157 0 .314-.039.314-.366 0-.039.013-.066.039-.066a.166.166 0 0 1 .092.053 2.058 2.058 0 0 0 1.311.431 1.823 1.823 0 0 0 2.069-1.69 1.876 1.876 0 0 0-1.174-1.626Z"/><path d="M61.556 17.659c-.078 0-.143.013-.2.013a.485.485 0 0 1-.38-.157 22.376 22.376 0 0 1-2.713-2.58c0-.04.026-.079.1-.131.642-.42 1.651-1.1 2.423-1.625a.625.625 0 0 1 .327-.118c.184 0 .079.013.262.013h.013a.345.345 0 0 0 .367-.341.319.319 0 0 0-.38-.341c-.341.013-.655.013-.943.013s-.59 0-.917-.013h-.026a.333.333 0 0 0-.354.341c0 .314.314.314.55.314.066 0 .092.013.092.039s-.013.039-.053.066c-2.07 1.429-2.122 1.442-2.266 1.442a.2.2 0 0 1-.223-.21s.025-2.777.025-4.468c0-.288-.092-.982-1.167-.982-.458 0-.694.039-.694.38a.357.357 0 0 0 .366.366h.3c.328.013.433.157.433.524 0 .708.013 1.586.014 2.5 0 1.6-.012 3.366-.038 4.742a.206.206 0 0 1-.222.222c-.21 0-.236-.013-.393-.013h-.013a.361.361 0 0 0-.38.367.339.339 0 0 0 .393.341c.3-.013.616-.026.943-.026s.681.012 1.022.026h.013a.351.351 0 0 0 .379-.354.351.351 0 0 0-.379-.354h-.013a3.37 3.37 0 0 1-.367.013.2.2 0 0 1-.222-.222c-.013-.629-.013-1.048-.013-1.363 0-.681.013-.8.21-.8a.467.467 0 0 1 .393.157c.406.419 1.481 1.414 2.176 2.095a.1.1 0 0 1 .026.053c0 .013 0 .092-.341.092a.307.307 0 0 0-.353.341.333.333 0 0 0 .354.34h.026c.3-.013.589-.026.877-.026s.6.012.944.025h.013a.35.35 0 0 0 .367-.367.325.325 0 0 0-.358-.334Z"/><path d="M68.053 16.859a.374.374 0 0 0-.262.118 2.344 2.344 0 0 1-1.9.865 2.14 2.14 0 0 1-2.2-2.305c0-.183.026-.235.157-.236.288 0 1.4.013 2.384.013.485 0 .93 0 1.232-.013.668-.026.956-.393.956-.878a2.442 2.442 0 0 0-2.582-2.148 3 3 0 0 0-2.921 3.171 2.928 2.928 0 0 0 2.962 3.091 2.632 2.632 0 0 0 2.568-1.3.4.4 0 0 0-.394-.378Zm-2.2-3.93a1.645 1.645 0 0 1 1.8 1.362c0 .21-.118.354-.432.368-.367.013-1.1.013-1.782.013-1.52 0-1.638 0-1.638-.131a2.121 2.121 0 0 1 2.05-1.612Z"/><path d="M72.875 17.788h-.053c-.13.013-.249.026-.366.026-1.022 0-1.048-.694-1.049-1.716 0-.969.039-2.319.039-2.817 0-.157 0-.183.21-.183h1.153a.341.341 0 0 0 .368-.354.338.338 0 0 0-.368-.341h-1.165c-.17 0-.2 0-.2-.144 0 0 .026-1.048.026-1.428a.371.371 0 0 0-.38-.405.371.371 0 0 0-.38.379v.328c0 .458-.013 1.087-.013 1.14 0 .118-.026.131-.143.131h-.755a.338.338 0 0 0-.367.341.34.34 0 0 0 .367.354h.773c.092 0 .131.013.131.144v.21c0 .642-.026 2.241-.026 3.079 0 .577 0 2 1.678 2 .524 0 .839-.066.839-.406a.325.325 0 0 0-.319-.338Z"/><path d="M79.491 16.854a.413.413 0 0 0-.341.2 2.062 2.062 0 0 1-1.677.76 2.3 2.3 0 0 1-2.28-2.436 2.316 2.316 0 0 1 2.279-2.477 1.721 1.721 0 0 1 1.336.537c.157.183.118.341.131.616a.347.347 0 0 0 .368.314.338.338 0 0 0 .379-.328v-.026c-.013-.3-.013-.51-.013-.707s0-.406.013-.681V12.6a.338.338 0 0 0-.38-.327c-.144 0-.3.065-.314.223-.013.065-.026.143-.066.143s-.039-.013-.066-.026a3.018 3.018 0 0 0-1.481-.393 3.036 3.036 0 0 0-2.947 3.211 2.978 2.978 0 0 0 3.08 3.091c1.415 0 2.4-.878 2.4-1.258a.42.42 0 0 0-.421-.41Z"/><path d="M87.417 17.654h-.013c-.184 0-.17.013-.367.013-.157 0-.222-.092-.222-.236 0-1.035-.014-2.542-.027-3.092a2.075 2.075 0 0 0-2.189-2.1 2.453 2.453 0 0 0-1.939.891c-.026.026-.039.039-.052.039s-.026-.026-.026-.066c0-.183.012-1.363.012-2.423v-.747a.914.914 0 0 0-.89-1 2.954 2.954 0 0 0-.328-.026c-.563 0-.668.17-.668.393a.357.357 0 0 0 .366.366h.014a2.589 2.589 0 0 1 .288-.013c.341.013.445.2.445.537 0 .786.013 1.847.014 2.961 0 1.572-.012 3.222-.025 4.284a.2.2 0 0 1-.21.223c-.21 0-.249-.013-.419-.013h-.013a.36.36 0 0 0-.379.368.338.338 0 0 0 .393.34c.3-.013.629-.026.956-.027s.681.013 1.022.026h.013a.358.358 0 0 0 .38-.354.355.355 0 0 0-.393-.354 3.22 3.22 0 0 1-.366.013.2.2 0 0 1-.223-.223c0-.615-.013-1.192-.013-1.676s.013-.865.013-1.114a1.913 1.913 0 0 1 1.951-1.716 1.47 1.47 0 0 1 1.507 1.545c.013.249.026.865.026 1.546 0 .485-.013.982-.013 1.415a.2.2 0 0 1-.21.222c-.21 0-.223-.012-.393-.012h-.013a.36.36 0 0 0-.379.366.339.339 0 0 0 .393.341c.3-.014.616-.027.944-.027s.681.013 1.022.026h.013a.352.352 0 0 0 .38-.354.351.351 0 0 0-.382-.342Z"/><path d="M14.599 14.647v-6.62a1.312 1.312 0 0 0-1.31-1.31H1.31A1.311 1.311 0 0 0 0 8.027v8.714a1.311 1.311 0 0 0 1.31 1.31h5.657l-2.134 2.148a.326.326 0 0 0 0 .46.326.326 0 0 0 .229.094.325.325 0 0 0 .231-.1l2.005-2.018 2 2.018a.326.326 0 0 0 .231.1.326.326 0 0 0 .229-.094.326.326 0 0 0 0-.46l-2.126-2.147h5.656a1.312 1.312 0 0 0 1.31-1.31v-1.31l3.778 2.563a.321.321 0 0 0 .182.056.326.326 0 0 0 .269-.142.326.326 0 0 0-.087-.452Zm-.65-.441-2.222-1.508a.326.326 0 0 0-.452.087.325.325 0 0 0 .087.451l2.587 1.755v1.75a.661.661 0 0 1-.66.66H1.31a.661.661 0 0 1-.66-.66V8.027a.661.661 0 0 1 .66-.66h11.979a.661.661 0 0 1 .66.66Z"/></g><g fill="#3d3b3d"><path d="M54.107 2.842a1.626 1.626 0 0 0 .15-.729 1.351 1.351 0 0 0-.562-1.2 2.854 2.854 0 0 0-1.614-.384q-.314 0-.687.025a4.32 4.32 0 0 0-.68.094v4.764h.879v-1.7h.439a4.387 4.387 0 0 0 .942-.091 2.023 2.023 0 0 0 .7-.282 1.258 1.258 0 0 0 .433-.497Zm-1.112-.063a2.161 2.161 0 0 1-.976.178h-.425V1.311c.144-.014.328-.021.551-.021a2.716 2.716 0 0 1 .471.039 1.2 1.2 0 0 1 .38.129.656.656 0 0 1 .251.251.8.8 0 0 1 .091.4.689.689 0 0 1-.343.671Z"/><path d="M57.703 2.197a1.579 1.579 0 0 0-.554-.387 1.817 1.817 0 0 0-.708-.136 1.785 1.785 0 0 0-.7.136 1.614 1.614 0 0 0-.554.387 1.77 1.77 0 0 0-.363.6 2.272 2.272 0 0 0-.129.784 2.3 2.3 0 0 0 .129.788 1.8 1.8 0 0 0 .359.607 1.609 1.609 0 0 0 .551.39 1.768 1.768 0 0 0 .711.139 1.791 1.791 0 0 0 .715-.139 1.6 1.6 0 0 0 .555-.39 1.752 1.752 0 0 0 .356-.607 2.353 2.353 0 0 0 .126-.788 2.259 2.259 0 0 0-.129-.784 1.8 1.8 0 0 0-.365-.6Zm-.612 2.263a.76.76 0 0 1-.652.321.761.761 0 0 1-.652-.321 1.453 1.453 0 0 1-.233-.872 1.423 1.423 0 0 1 .233-.861.764.764 0 0 1 .652-.318.762.762 0 0 1 .652.318 1.42 1.42 0 0 1 .234.861 1.449 1.449 0 0 1-.234.872Z"/><path d="M59.161 3.802q.154.468.307.879t.293.732h.693q.18-.516.365-1.1t.345-1.2q.16.614.352 1.2t.373 1.1h.686q.146-.32.3-.732t.307-.879q.154-.467.307-.983t.3-1.053h-.872q-.064.293-.147.631t-.179.69q-.094.353-.193.687a22.36 22.36 0 0 1-.189.613q-.1-.32-.2-.663t-.188-.684q-.088-.342-.164-.666t-.139-.611h-.649q-.063.286-.143.611t-.171.666q-.091.342-.192.684t-.207.663c-.065-.186-.13-.39-.2-.613s-.128-.452-.189-.687-.119-.465-.175-.69-.105-.436-.147-.631h-.892q.146.537.3 1.053t.308.983Z"/><path d="M66.1 5.503a3.227 3.227 0 0 0 .37-.021c.121-.014.233-.031.339-.053a2.814 2.814 0 0 0 .278-.069 1.328 1.328 0 0 0 .192-.074l-.112-.69a2.291 2.291 0 0 1-.4.119 2.6 2.6 0 0 1-.561.056 1.181 1.181 0 0 1-.8-.24.963.963 0 0 1-.31-.68h2.406c0-.046.008-.1.011-.157s0-.111 0-.157a2.019 2.019 0 0 0-.422-1.394 1.5 1.5 0 0 0-1.175-.468 1.68 1.68 0 0 0-.628.122 1.572 1.572 0 0 0-.544.363 1.776 1.776 0 0 0-.38.6 2.289 2.289 0 0 0-.143.844 2.447 2.447 0 0 0 .112.757 1.628 1.628 0 0 0 .342.6 1.563 1.563 0 0 0 .586.4 2.244 2.244 0 0 0 .839.142Zm-.921-2.588a.87.87 0 0 1 .157-.272.776.776 0 0 1 .248-.192.754.754 0 0 1 .342-.073.726.726 0 0 1 .324.067.674.674 0 0 1 .23.181.793.793 0 0 1 .143.272 1.121 1.121 0 0 1 .049.331h-1.569a1.491 1.491 0 0 1 .077-.314Z"/><path d="M70.25 1.727c-.075-.012-.149-.021-.223-.028s-.14-.01-.2-.01a3.785 3.785 0 0 0-.812.08 4.639 4.639 0 0 0-.611.171v3.473h.844V2.491a1.925 1.925 0 0 1 .219-.049 1.733 1.733 0 0 1 .3-.028 2.114 2.114 0 0 1 .429.039 2.789 2.789 0 0 1 .29.073l.146-.711c-.042-.014-.1-.028-.167-.045s-.141-.032-.215-.043Z"/><path d="M71.471 4.96a1.562 1.562 0 0 0 .586.4 2.244 2.244 0 0 0 .837.143 3.226 3.226 0 0 0 .37-.021c.121-.014.233-.031.339-.053a2.82 2.82 0 0 0 .278-.069 1.328 1.328 0 0 0 .192-.074l-.112-.69a2.312 2.312 0 0 1-.4.119 2.61 2.61 0 0 1-.562.056 1.181 1.181 0 0 1-.8-.24.962.962 0 0 1-.31-.68h2.406c0-.046.008-.1.01-.157s0-.111 0-.157a2.019 2.019 0 0 0-.422-1.394 1.5 1.5 0 0 0-1.175-.468 1.68 1.68 0 0 0-.628.122 1.566 1.566 0 0 0-.544.363 1.775 1.775 0 0 0-.38.6 2.3 2.3 0 0 0-.143.844 2.447 2.447 0 0 0 .112.757 1.627 1.627 0 0 0 .346.599Zm.5-2.047a.871.871 0 0 1 .157-.272.776.776 0 0 1 .248-.192.755.755 0 0 1 .342-.073.732.732 0 0 1 .325.067.672.672 0 0 1 .23.181.793.793 0 0 1 .143.272 1.12 1.12 0 0 1 .049.331h-1.569a1.459 1.459 0 0 1 .078-.312Z"/><path d="M76.855 5.506a4.893 4.893 0 0 0 .8-.063 4.928 4.928 0 0 0 .631-.139v-5.3l-.844.139v1.751a2.111 2.111 0 0 0-.349-.139 1.579 1.579 0 0 0-.467-.063 1.654 1.654 0 0 0-.69.136 1.412 1.412 0 0 0-.509.387 1.725 1.725 0 0 0-.318.6 2.678 2.678 0 0 0-.108.785 2.3 2.3 0 0 0 .129.792 1.676 1.676 0 0 0 .37.6 1.61 1.61 0 0 0 .583.38 2.124 2.124 0 0 0 .772.134Zm-.778-2.776a.756.756 0 0 1 .673-.314 1.16 1.16 0 0 1 .394.066 1.332 1.332 0 0 1 .3.143v2.092a2.4 2.4 0 0 1-.234.039 2.988 2.988 0 0 1-.345.017.9.9 0 0 1-.732-.317 1.323 1.323 0 0 1-.265-.876 1.5 1.5 0 0 1 .209-.853Z"/><path d="M82.414 5.506a2.128 2.128 0 0 0 .775-.133 1.589 1.589 0 0 0 .582-.384 1.7 1.7 0 0 0 .37-.6 2.293 2.293 0 0 0 .129-.792 2.65 2.65 0 0 0-.108-.778 1.787 1.787 0 0 0-.31-.6 1.348 1.348 0 0 0-.506-.387 1.663 1.663 0 0 0-.687-.136 1.66 1.66 0 0 0-.471.063 1.982 1.982 0 0 0-.359.139V.008l-.845.139v5.161a4.95 4.95 0 0 0 .631.139 4.893 4.893 0 0 0 .799.059Zm-.585-2.888a1.2 1.2 0 0 1 .3-.139 1.2 1.2 0 0 1 .394-.063.755.755 0 0 1 .673.314 1.5 1.5 0 0 1 .213.851 1.323 1.323 0 0 1-.266.876.9.9 0 0 1-.732.317 2.992 2.992 0 0 1-.346-.017 2.333 2.333 0 0 1-.233-.039Z"/><path d="M85.172 6.006a1.378 1.378 0 0 1-.5-.1l-.153.677a1.282 1.282 0 0 0 .29.091 1.815 1.815 0 0 0 .387.042 1.83 1.83 0 0 0 .517-.066 1.175 1.175 0 0 0 .405-.213 1.616 1.616 0 0 0 .328-.37 3.788 3.788 0 0 0 .286-.537 26.612 26.612 0 0 0 1.309-3.766h-.872q-.16.656-.355 1.357t-.416 1.322q-.133-.3-.266-.649t-.252-.7q-.118-.353-.221-.694t-.171-.635h-.9a18.423 18.423 0 0 0 .655 1.925q.368.907.767 1.674a1.285 1.285 0 0 1-.326.485.774.774 0 0 1-.512.157Z"/></g></svg>