<svg xmlns="http://www.w3.org/2000/svg" width="22.021" height="18"><path d="M21.406.482c-.8.29-1.587.569-2.368.855a.668.668 0 0 1-.756-.176 4.532 4.532 0 0 0-7.5 4.076 2.575 2.575 0 0 1 0 .353A13.081 13.081 0 0 1 1.43.827a4.68 4.68 0 0 0 1.347 6.054l-.066.083L.794 6.43a4.835 4.835 0 0 0 3.529 4.511H2.398a4.681 4.681 0 0 0 4.238 3.162 9.326 9.326 0 0 1-6.641 1.893c.177.116.241.162.309.2a12.672 12.672 0 0 0 5.824 1.778 12.336 12.336 0 0 0 7.057-1.547A12.9 12.9 0 0 0 19.808 4.92a.8.8 0 0 1 .337-.708 8.137 8.137 0 0 0 1.872-2.019c-.441.147-.817.289-1.2.394s-.788.17-1.183.254A5.245 5.245 0 0 0 21.406.482Z" fill="#fafafa"/></svg>