<svg xmlns="http://www.w3.org/2000/svg" width="220.584" height="33.651"><defs><clipPath id="a"><path fill="none" d="M0 0h220.584v33.651H0z"/></clipPath></defs><g><path d="m142.495 6.507 5.527 15.333L153.5 6.507h4.948l-8.2 22.152h-4.457l-8.2-22.152Z" fill="#338bfd"/><g><g clip-path="url(#a)"><path d="M160.1 28.214a4.711 4.711 0 0 1-1.916-1.828 5.207 5.207 0 0 1-.713-2.763 5.1 5.1 0 0 1 .713-2.763 5.253 5.253 0 0 1 1.961-1.872 5.754 5.754 0 0 1 2.763-.669 4.417 4.417 0 0 1 1.471.178c.4.134.847.268 1.382.491v-.268a1.611 1.611 0 0 0-.624-1.337 2.643 2.643 0 0 0-1.6-.49 3.236 3.236 0 0 0-2.362.98l-2.229-3.12a5.427 5.427 0 0 1 2.229-1.471 7.719 7.719 0 0 1 3.075-.579 6.073 6.073 0 0 1 4.458 1.6 6.1 6.1 0 0 1 1.649 4.457v9.94h-4.636v-.8a3.155 3.155 0 0 1-1.337.713 5.964 5.964 0 0 1-1.783.267 6.118 6.118 0 0 1-2.5-.668m5.126-3.343a1.813 1.813 0 0 0 .535-1.337 1.846 1.846 0 0 0-.535-1.382 1.747 1.747 0 0 0-1.293-.49 1.94 1.94 0 0 0-1.292.49 1.846 1.846 0 0 0-.535 1.382 1.813 1.813 0 0 0 .535 1.337 1.741 1.741 0 0 0 1.292.49 1.81 1.81 0 0 0 1.293-.49" fill="#338bfd"/><path d="M177.082 27.768a7.979 7.979 0 0 1-2.942-2.9 8.571 8.571 0 0 1 0-8.29 7.662 7.662 0 0 1 2.942-2.9 8.779 8.779 0 0 1 8.558.09 7.519 7.519 0 0 1 2.852 3.253l-4.1 2.1a3.417 3.417 0 0 0-1.2-1.6 3.741 3.741 0 0 0-4.5.49 3.6 3.6 0 0 0-.981 2.674 3.6 3.6 0 0 0 .981 2.674 3.457 3.457 0 0 0 2.54 1.026 3.494 3.494 0 0 0 1.961-.535 3.215 3.215 0 0 0 1.2-1.605l4.1 2.1a7.282 7.282 0 0 1-2.852 3.254 8.306 8.306 0 0 1-4.368 1.159 7.315 7.315 0 0 1-4.19-.981" fill="#338bfd"/><path d="m198.878 3.833 1.871 3.744-8.112 3.788-1.827-3.744Zm-2.942 24.826H191.3V12.836h4.635Z" fill="#338bfd"/><path d="M201.551 28.214a4.718 4.718 0 0 1-1.916-1.828 5.215 5.215 0 0 1-.712-2.763 5.108 5.108 0 0 1 .712-2.763 5.261 5.261 0 0 1 1.961-1.872 5.757 5.757 0 0 1 2.763-.669 4.419 4.419 0 0 1 1.472.178c.4.134.847.268 1.381.491v-.268a1.61 1.61 0 0 0-.623-1.337 2.645 2.645 0 0 0-1.605-.49 3.236 3.236 0 0 0-2.363.98l-2.228-3.12a5.43 5.43 0 0 1 2.228-1.471 7.724 7.724 0 0 1 3.079-.582 6.07 6.07 0 0 1 4.457 1.6 6.1 6.1 0 0 1 1.649 4.457V28.7h-4.636v-.8a3.157 3.157 0 0 1-1.336.713 5.974 5.974 0 0 1-1.783.267 6.123 6.123 0 0 1-2.5-.668m5.127-3.343a1.812 1.812 0 0 0 .534-1.337 1.845 1.845 0 0 0-.534-1.382 1.749 1.749 0 0 0-1.294-.49 1.943 1.943 0 0 0-1.292.49 1.849 1.849 0 0 0-.535 1.382 1.817 1.817 0 0 0 .535 1.337 1.744 1.744 0 0 0 1.292.49 1.811 1.811 0 0 0 1.294-.49" fill="#338bfd"/><path d="M215.592 27.991a2.79 2.79 0 0 1-.847-2.095 2.862 2.862 0 0 1 .847-2.095 2.8 2.8 0 0 1 2.05-.891 2.855 2.855 0 0 1 2.1.847 2.986 2.986 0 0 1-2.139 5.081 2.665 2.665 0 0 1-2.006-.847" fill="#338bfd"/><path d="M4.725 6.507V24.2h9.939v4.457H0V6.507Z" fill="#338bfd"/><path d="M19.7 28.214a4.712 4.712 0 0 1-1.916-1.828 5.207 5.207 0 0 1-.713-2.763 5.1 5.1 0 0 1 .713-2.763 5.253 5.253 0 0 1 1.961-1.872 5.754 5.754 0 0 1 2.763-.669 4.417 4.417 0 0 1 1.471.178c.4.134.847.268 1.382.491v-.268a1.611 1.611 0 0 0-.624-1.337 2.643 2.643 0 0 0-1.6-.49 3.236 3.236 0 0 0-2.362.98l-2.229-3.12a5.427 5.427 0 0 1 2.229-1.471 7.719 7.719 0 0 1 3.075-.579 6.072 6.072 0 0 1 4.458 1.6 6.1 6.1 0 0 1 1.649 4.457v9.94h-4.552v-.8a3.155 3.155 0 0 1-1.337.713 5.964 5.964 0 0 1-1.783.267 6.16 6.16 0 0 1-2.585-.668m5.126-3.343a1.813 1.813 0 0 0 .535-1.337 1.846 1.846 0 0 0-.535-1.382 1.747 1.747 0 0 0-1.293-.49 1.94 1.94 0 0 0-1.292.49 1.846 1.846 0 0 0-.535 1.382 1.813 1.813 0 0 0 .535 1.337 1.741 1.741 0 0 0 1.292.49 1.81 1.81 0 0 0 1.293-.49" fill="#338bfd"/><path d="M38.688 28.035a7.281 7.281 0 0 1-2.588-2.184 6.946 6.946 0 0 1-1.2-2.986l4.68-1.025a2.933 2.933 0 0 0 .847 1.782 2.521 2.521 0 0 0 1.828.714 2.485 2.485 0 0 0 1.872-.758 2.832 2.832 0 0 0 .668-1.961 2.4 2.4 0 0 0-.4-1.471 2.681 2.681 0 0 0-1.025-.847c-.4-.178-.981-.4-1.694-.669l-.4-.133a1.041 1.041 0 0 0-.356-.089 10.1 10.1 0 0 1-3.655-2.184 4.84 4.84 0 0 1-1.382-3.655 6.349 6.349 0 0 1 .8-3.209 5.376 5.376 0 0 1 2.273-2.184 6.644 6.644 0 0 1 3.254-.8 6.716 6.716 0 0 1 3.477.892A6.012 6.012 0 0 1 48 9.672L44.259 12.3a2.3 2.3 0 0 0-.757-1.025 1.786 1.786 0 0 0-1.2-.4 1.613 1.613 0 0 0-1.2.446 1.511 1.511 0 0 0-.446 1.159 1.559 1.559 0 0 0 .669 1.381 10.169 10.169 0 0 0 2.317.981c.491.178.8.267.936.312a8.932 8.932 0 0 1 3.7 2.318 5.824 5.824 0 0 1 1.337 4.1 7.324 7.324 0 0 1-.981 3.833A6.775 6.775 0 0 1 46 28.035a7.534 7.534 0 0 1-3.744.936 10.272 10.272 0 0 1-3.566-.936" fill="#338bfd"/><path d="M52.728 10.474a2.792 2.792 0 0 1-.847-2.1 2.862 2.862 0 0 1 .847-2.095 2.8 2.8 0 0 1 2.05-.891 2.855 2.855 0 0 1 2.1.847 2.885 2.885 0 0 1 .847 2.139 2.9 2.9 0 0 1-.891 2.1 2.862 2.862 0 0 1-2.095.847 2.575 2.575 0 0 1-2.006-.847m4.413 18.185h-4.64V12.836h4.635Z" fill="#338bfd"/><path d="M65.3 6.062v22.6h-4.638V6.552Z" fill="#338bfd"/><path d="M73.454 6.062v22.6h-4.635V6.552Z" fill="#338bfd"/><path d="M79.069 28.214a4.712 4.712 0 0 1-1.916-1.828 5.207 5.207 0 0 1-.713-2.763 5.1 5.1 0 0 1 .713-2.763 5.253 5.253 0 0 1 1.961-1.872 5.754 5.754 0 0 1 2.763-.669 4.417 4.417 0 0 1 1.471.178c.4.134.847.268 1.382.491v-.268a1.611 1.611 0 0 0-.624-1.337 2.643 2.643 0 0 0-1.605-.49 3.236 3.236 0 0 0-2.362.98l-2.229-3.12a5.427 5.427 0 0 1 2.229-1.471 7.719 7.719 0 0 1 3.075-.579 6.072 6.072 0 0 1 4.458 1.6 6.1 6.1 0 0 1 1.649 4.457v9.94h-4.636v-.8a3.155 3.155 0 0 1-1.337.713 5.964 5.964 0 0 1-1.783.267 6.118 6.118 0 0 1-2.5-.668m5.126-3.343a1.813 1.813 0 0 0 .535-1.337 1.846 1.846 0 0 0-.535-1.382 1.747 1.747 0 0 0-1.293-.49 1.94 1.94 0 0 0-1.292.49 1.846 1.846 0 0 0-.535 1.382 1.813 1.813 0 0 0 .535 1.337 1.741 1.741 0 0 0 1.292.49 1.81 1.81 0 0 0 1.293-.49" fill="#338bfd"/><path d="m120.7 13.193-9.182 2.1V17.7l1.515.356V17.2l7.667 1.783V29.1h1.515V18.987l7.666-1.783v9.583h1.519V2.451L120.7 0Zm1.515-3.655 7.666 1.783v3.655l-7.666-1.783Z" fill="#3d3b3d"/><path d="M111.518 26.787h1.515v-3.521l-1.515.356Z" fill="#3d3b3d"/><path d="M97.745 4.591v26.787h1.515v-9.627l6.909 1.6v-5.389l-6.909 1.56v-3.654l7.667 1.738v16.046h1.515V7.087Z" fill="#3d3b3d"/><path d="M109.2 17.962v5.393l6.909-1.6v9.627h1.515v-11.5Z" fill="#3d3b3d"/></g></g></g></svg>